<svg width="170" height="170" viewBox="0 0 170 170" fill="none" xmlns="http://www.w3.org/2000/svg">
<g id="creative">
<g id="experiment">
<path id="Vectorcolor" d="M144.642 128.055V127.595C148.08 127.591 151.376 126.098 153.807 123.444C156.238 120.789 157.605 117.191 157.609 113.437V85.8847C157.609 59.2107 137.734 37.5099 113.304 37.5099C88.8748 37.5099 69 59.2107 69 85.8847V116.306C69.0031 119.299 70.0934 122.169 72.0316 124.285C73.9698 126.401 76.5977 127.592 79.3388 127.595V128.055C76.4861 128.051 73.7512 126.812 71.7341 124.61C69.7169 122.407 68.5823 119.421 68.579 116.306V85.8847C68.579 58.9573 88.6428 37.0502 113.304 37.0502C137.966 37.0502 158.03 58.9573 158.03 85.8847V113.437C158.026 117.313 156.614 121.028 154.104 123.768C151.594 126.509 148.192 128.05 144.642 128.055Z" fill="#3F3D56"/>
<path id="Vectorcolor_2" d="M158.24 110.359H68.3686V150.806H158.24V110.359Z" fill="#2F2E41"/>
<g id="shape">
<path id="Vectorcolor_3" d="M127.038 68.7856L118.461 75.4434L124.558 84.8084L133.135 78.1506L127.038 68.7856Z" fill="#6C63FF"/>
<path id="Vectorcolor_4" d="M127.728 66.276L119.151 72.9338L125.249 82.2989L133.826 75.6411L127.728 66.276Z" stroke="#3F3D56" stroke-width="2" stroke-miterlimit="10"/>
<path id="Vectorcolor_5" d="M111.094 64.3975C113.536 64.3975 115.514 62.2369 115.514 59.5715C115.514 56.9062 113.536 54.7455 111.094 54.7455C108.653 54.7455 106.675 56.9062 106.675 59.5715C106.675 62.2369 108.653 64.3975 111.094 64.3975Z" fill="#6C63FF"/>
<path id="Vectorcolor_6" d="M109.832 63.7081C112.273 63.7081 114.252 61.5474 114.252 58.8821C114.252 56.2168 112.273 54.0561 109.832 54.0561C107.391 54.0561 105.412 56.2168 105.412 58.8821C105.412 61.5474 107.391 63.7081 109.832 63.7081Z" stroke="#3F3D56" stroke-width="2" stroke-miterlimit="10"/>
<path id="Vectorcolor_7" d="M98.0313 78.8571L103.321 82.1817L108.611 85.5064L103.329 88.8462L98.0473 92.186L98.0393 85.5215L98.0313 78.8571Z" fill="#6C63FF"/>
<path id="Vectorcolor_8" d="M97.1812 81.381L102.471 84.7059L107.761 88.0305L102.479 91.3703L97.197 94.7099L97.189 88.0454L97.1812 81.381Z" stroke="#3F3D56" stroke-width="2" stroke-miterlimit="10"/>
</g>
<path id="Vectorcolor_9" d="M76.4581 68.0339C77.2601 64.9052 78.742 62.034 80.7778 59.6644C82.8135 57.2948 85.3431 55.4968 88.1515 54.423C88.9155 54.1362 88.5872 52.8038 87.8157 53.0934C84.7987 54.2355 82.0795 56.1574 79.8898 58.6951C77.7001 61.2327 76.1049 64.311 75.2404 67.6673C75.0237 68.5239 76.2417 68.8895 76.4581 68.0339V68.0339Z" fill="white"/>
</g>
<g id="girl">
<path id="Vectorcolor_10" d="M39.5719 154.575C54.7994 154.575 67.1437 152.826 67.1437 150.668C67.1437 148.51 54.7994 146.761 39.5719 146.761C24.3443 146.761 12 148.51 12 150.668C12 152.826 24.3443 154.575 39.5719 154.575Z" fill="#3F3D56"/>
<path id="Vectorcolor_11" d="M26.5485 42.5144L25.6326 44.8894L26.663 60.2647C26.663 60.2647 26.0906 61.1398 26.663 61.7648C27.2354 62.3898 27.1209 62.6398 27.1209 62.6398C27.1209 62.6398 26.2051 62.6398 26.663 63.3898C27.1209 64.1398 27.1209 64.5148 27.1209 64.5148L26.892 65.2648C26.892 65.2648 27.3499 65.8898 27.3499 66.3899C27.3499 66.8899 30.3265 82.2652 30.3265 82.2652L33.1886 76.14L31.5858 51.7646L26.5485 42.5144Z" fill="#ADADAD"/>
<path id="Vectorcolor_12" d="M55.9377 81.6132C55.9377 81.6132 62.1885 81.3375 64.1815 83.7451C66.1745 86.1526 56.3516 84.4109 55.796 83.7326C55.2404 83.0542 55.9377 81.6132 55.9377 81.6132Z" fill="#FFB9B9"/>
<path id="Vectorcolor_13" d="M25.0602 142.266L23.8009 146.766C23.8009 146.766 21.9692 151.141 24.4878 151.767C27.0064 152.392 29.4106 150.016 29.4106 150.016V147.016L30.3265 142.266H25.0602Z" fill="#2F2E41"/>
<path id="Vectorcolor_14" d="M45.6674 142.266C45.6674 142.266 45.095 150.767 46.3543 151.267C47.6136 151.767 52.0785 151.892 52.193 151.267C52.3075 150.642 53.6813 150.016 52.6509 149.141C51.6206 148.266 50.9337 143.141 50.9337 143.141L45.6674 142.266Z" fill="#2F2E41"/>
<path id="Vectorcolor_15" d="M34.1045 61.7648V65.5149C34.1045 65.5149 30.3265 74.14 28.9527 87.7653C27.5789 101.391 22.885 142.891 24.0299 143.641C25.1747 144.391 37.539 144.891 37.8825 143.891C38.2259 142.891 38.5694 113.641 38.5694 113.641L42.8053 93.0154C42.8053 93.0154 43.6067 100.391 44.2936 101.641C44.9805 102.891 43.1487 143.516 44.2936 144.141C45.4384 144.766 60.8938 145.891 60.6648 143.891C60.4359 141.891 55.2841 87.6403 55.2841 87.6403C55.2841 87.6403 52.6509 62.0148 51.8496 61.7648C51.0482 61.5148 43.7212 61.2648 42.5763 61.5148C41.4315 61.7648 34.1045 61.7648 34.1045 61.7648Z" fill="#2F2E41"/>
<path id="Vectorcolor_16" d="M42.8053 30.7642C46.4093 30.7642 49.3309 27.5742 49.3309 23.6391C49.3309 19.7039 46.4093 16.5139 42.8053 16.5139C39.2013 16.5139 36.2797 19.7039 36.2797 23.6391C36.2797 27.5742 39.2013 30.7642 42.8053 30.7642Z" fill="#FFB9B9"/>
<path id="Vectorcolor_17" d="M44.1791 29.6391C44.1791 29.6391 40.8591 35.2642 41.6604 36.7643C42.4618 38.2643 33.1886 35.2642 33.1886 35.2642C33.1886 35.2642 38.7983 27.7641 38.6838 26.8891C38.5694 26.0141 44.1791 29.6391 44.1791 29.6391Z" fill="#FFB9B9"/>
<path id="Vectorcolor_18" d="M51.0481 38.0144C51.0481 38.0144 44.9805 35.8893 44.1791 35.0143C43.665 34.4409 43.2048 33.8128 42.8053 33.1393C42.8053 33.1393 35.4783 32.0143 35.2493 32.0143C35.0204 32.0143 33.3031 34.2643 32.8451 34.7643C32.3872 35.2643 26.5485 38.6394 26.5485 39.5144C26.5485 40.3894 25.6326 44.8895 25.6326 44.8895C25.6326 44.8895 27.6933 49.5146 28.9527 50.5146C30.212 51.5146 30.5555 51.2646 30.6699 52.8897C30.7844 54.5147 32.3872 57.1398 32.3872 57.1398C32.3872 57.1398 33.4176 60.0148 33.1886 60.8898C32.9596 61.7648 31.9293 62.5149 34.3334 62.2648C36.7376 62.0148 48.644 62.7649 48.644 61.3898C48.644 60.0148 46.3543 46.8896 46.3543 46.8896L51.0481 38.0144Z" fill="#ADADAD"/>
<path id="Vectorcolor_19" d="M48.873 38.2644L51.0482 38.0143C51.0482 38.0143 51.8496 38.5144 51.9641 43.3894C52.0785 48.2645 52.0785 60.0147 52.8799 61.0148C53.6813 62.0148 57.0014 77.5151 57.0014 77.5151C57.0014 77.5151 57.9172 77.7651 57.9172 78.6401C57.9172 79.5151 58.9476 80.2651 58.4897 81.2652C58.0317 82.2652 58.9476 82.0152 58.3752 82.6402C57.8028 83.2652 55.0551 84.5152 54.9407 83.7652C54.8262 83.0152 55.2841 82.8902 54.8262 82.6402C54.3682 82.3902 54.3682 82.2652 54.2538 81.3902C54.1393 80.5151 53.1089 79.6401 53.2234 79.2651C53.3379 78.8901 48.1861 68.0149 48.1861 67.6399C48.1861 67.2649 47.8426 65.8899 47.3847 65.6399C46.9267 65.3899 46.2398 65.1399 46.5833 64.5148C46.9267 63.8898 45.6674 45.1395 45.6674 45.1395L48.873 38.2644Z" fill="#ADADAD"/>
<path id="Vectorcolor_20" d="M48.3236 19.1204C46.3225 16.7486 43.18 15.4898 40.2981 16.1953C37.4162 16.9007 34.9895 19.6944 34.7642 22.9098C34.7181 23.5675 34.7565 24.2393 34.6006 24.8766C34.3384 25.9486 33.5583 26.7981 33.2833 27.8662C33.0991 28.5816 33.1537 29.3518 32.9585 30.0637C32.5978 31.3791 31.4812 32.2368 30.6302 33.2477C30.2856 33.6182 30.0296 34.0756 29.8849 34.5794C29.8101 35.0263 29.7911 35.4821 29.8285 35.9345C29.8644 38.3731 29.0341 40.7321 27.5117 42.5167C28.4068 41.7906 29.3739 41.1767 30.3947 40.6867C29.8888 42.446 30.3513 44.5275 31.6244 45.7392C32.8975 46.9508 34.9366 47.139 36.3132 46.0707C37.1309 45.436 37.6621 44.4619 38.1693 43.5169L40.0901 39.9385C40.4375 39.2913 40.8002 38.6252 41.3553 38.1831C41.7965 37.8318 42.3325 37.6448 42.7766 37.2979C43.8967 36.4228 44.1975 34.71 43.9889 33.2234C43.7804 31.7368 43.1681 30.3566 42.8169 28.9023C42.5392 27.7521 42.452 26.434 43.0768 25.4596C43.9062 24.1662 45.6107 24.0011 46.7377 23.0118C47.162 22.6393 47.3515 22.1861 47.6554 21.7198C47.936 21.2894 48.0074 21.4437 48.4421 21.424C49.6357 21.37 48.7659 19.6446 48.3236 19.1204Z" fill="#2F2E41"/>
</g>
</g>
</svg>
