 <svg id="header-img" viewbox="0 0 100vh 100vw">
        <defs>
          <mask id="mask" x="0" y="0" width="100" height="50">
            <rect x="0" y="0" width="100vw" height="120vh" fill="#fff"/>
            <text text-anchor="middle" x="50%" y="3em" font-weight="bolder" dy="1">Driven</text>
            <text text-anchor="middle" x="50%" y="4em"  dy="1">By</text>
            <text text-anchor="middle" x="50%" y="5em"  dy="1">Insights</text>
            <g id="Logos">
              <path id="AILOGO" d="M12.4 148.7h0a1.2 1.2 0 00-.1.4l.1.6.2.3a7.4 7.4 0 00-1.2 0l-.9.1H10.2h0v.1h0c-.8 0-1.3.2-1.6.4a1 1 0 00-.4.5c-.1.1-.1.3 0 .4 0 .3.2.5.2.5h0c.5.5 1.2.7 1.8.8h.2c-1 0-1.8-.2-2.3-.5h0l-.8-.7-.2-.2-.6-.5h0a7.4 7.4 0 00-2.4-1.2h0l-1.2-.3c1.4 0 2.4-.2 3-.4a3.8 3.8 0 001-.6H7s0 0 0 0l3-2.4h0l4.3-3.8h1.4l-3.3 6.5z" stroke="#000" stroke-width=".2"/>
              <g id="boseLogo">
                <g id="BOSE">
                  <mask id="path-7-inside-1" fill="#fff">
                    <path fill-rule="evenodd" clip-rule="evenodd" d="M222 154.2l-.3.1a49.5 49.5 0 01-.2.7h1l-.2.2-.1.1h-.2v-.2h-.8v.2c-.1.1 0 .2 0 .2h1.5l.3-.1.2-.5c.1 0 0-.2 0-.2h-1l.2-.2.1-.1h.2v.2h.8v-.2c.1-.1 0-.2 0-.2H222z"/>
                  </mask>
                  <path d="M222 154.2v.2h.2v-.2h-.2zm-.3.1h-.2.2zm-.3.5h.2-.2zm1 .2h.2l.2-.2h-.4v.2zm-.1.2h-.2.2zm-.3 0h-.2.2zm0 0h.2l.2-.3h-.4v.2zm-.8 0v-.3l-.1.1.1.1zm0 .1v.1zm1.8 0l.2.2-.2-.1zm.2-.4h-.1.1zm-1-.2h-.1l-.2.2h.4v-.2zm.2-.2h.2-.2zm.3 0l-.2-.1h.2zm0 0h-.2l-.2.3h.4v-.2zm.8 0v.3l.1-.1-.1-.1zm0-.1h.2-.1zm0-.2v.2-.2zm-1.5 0v-.2h-.2v.2h.2zm0-.2c-.2 0-.4 0-.5.2l.4.2v-.4zm-.5.2l-.2.5.3.2.3-.5-.4-.2zm-.2.5c-.2.2 0 .5.2.5v-.4h.1l-.3-.1zm.2.5H222.5v-.2-.2H222h-.1-.1-.1-.1-.1v.4zm1-.2l-.2-.1a5 5 0 00-.2.2l.3.2.1-.1a1.6 1.6 0 01.1-.1l-.2-.1zm-.4.1v.4c.2 0 .3 0 .3-.2l-.3-.2zm0 0v.4-.4zm0 0v.2l-.3-.2a.3.3 0 00.2.4v-.4zm0 .2v-.2h-.2-.1l.3.2zm0-.4h-.9v.4h.8v-.4zm-.9.2h-.1l-.2.1.4.2v-.1h.1l-.2-.2zm-.3.1c-.1.3 0 .5.3.5v-.4.1l-.3-.2zm.3.5H222.8v-.4h-.2-.1-.1-.1-.1H221.7h-.1-.2-.1-.1v.4zm1.5 0c.2 0 .4 0 .5-.2l-.4-.2v.4zm.5-.2l.2-.5-.3-.2-.3.5.4.2zm.2-.5v-.3l-.3-.2v.4l.3.1zm-.3-.5h-.2-.1-.1-.1-.1-.1-.1v.4H223.2v-.4zm-.8.2l.1.1h.1v-.2l-.3-.2v.1l-.1.1.2.1zm.3-.1v-.4c-.2 0-.3 0-.4.2l.4.2zm0 0v-.4.4zm0 0c0-.1-.1-.2 0-.2l.3.2v-.3l-.2-.1v.4zm0-.2a3.3 3.3 0 00-.1 0l.2.2h.1l-.3-.2zm0 .4h.9v-.4h-.8v.4zm.9-.2h.1a2.1 2.1 0 00.1-.1l-.3-.2v.1h-.1l.2.2zm.2-.1c.2-.2 0-.5-.2-.5v.4h-.1v-.1l.3.2zm-.2-.5H222v.4h1.5v-.4zm-1.7.2h.4-.4z" fill="#000" mask="url(#path-7-inside-1)"/>
                </g>
                <path id="F" d="M220.8 154.4l-.1.1-.5.8.6-1zm0 0h-.1m0 0h0m0 0l-.2-.1h0-.1 0l-.2.1h0l-.4.8h0v.2h.2l.2-.1.5-1zm-.1-.1h.7s0 0 0 0 0 0 0 0l-.5 1s0 0 0 0l-.2.1h0-.1 0-.1 0-.1 0-.1 0-.1 0-.1 0-.1 0-.1 0-.1 0-.1 0-.1 0-.1 0-.1 0-.1 0-.1 0s0 0 0 0 0 0 0 0 0 0 0 0h0a803.7 803.7 0 01.7-1.1h.8z" stroke="#000" stroke-width=".2"/>
                <path id="S" d="M218.2 154.4v-.1h0l-.3.4v.1h.1v0H218.3s0 0 0 0h0-.1 0-.1 0-.1 0-.1 0v.2-.1h0-.1l-.2.4-.1.1H218.2v0l.2-.3s0 0 0 0 0 0 0 0h0v-.1l-.2-.6zm.2.4h.2v-.1s0 0 0 0h0l.1-.2s0 0 0 0 0 0 0 0h0l-.3.3zm-.2.4s0 0 0 0l-.1.1h-.3.4zm.6-.2s0 0 0 0l-3.3.4v0h1.4l.7-1.1h1.6s0 0 0 0h0v.2l-.2.1h0l-.1.2v.2s0 0 0 0z" stroke="#000" stroke-width=".2"/>
                <path id="C" d="M226.5 154.3v0h-2 0l-.2.4-.1.1h1.2H224.1v.1l-.2.4-.1.1h1.1-1.7l.7-1.1h2.5z" stroke="#000" stroke-width=".2"/>
              </g>
              <g id="discoveryLogo" fill-rule="evenodd" clip-rule="evenodd">
                <path id="Discover" d="M501.4 149.5v-.3h.2l.1-.1v-.3l-.6-.9-.2-.1v-.2h.9v.2h-.2l.4.7.4-.6h-.2v-.3h.8v.2h-.1l-.2.1-.6 1v.2l.2.1h.2v.3h-1z" fill="#AD0078"/>
                <path id="Discover1" d="M493.5 147.8c.4 0 .6.5.6.8 0 .3-.1.7-.5.7s-.6-.5-.6-.8c0-.4 0-.7.5-.7zm-4.8 1h-.2v.5h.7l-.5-.5zm-.5.5l.1-.3-.2.2zm-.4-1.3l.2-.2-.2-.2c-.2 0-.3 0-.3.2 0 .1.1.2.3.2zm7.6 1.5l-.6-1.5-.1-.2h-.2v-.2h1v.2h-.1-.2v.1l.4 1.1.5-1v-.1h-.2v-.3h.7v.2l-.2.1-.6 1.6h-.4zm-4.4 0c.2-.1.4-.1.5-.3-.5 0-.6-.4-.6-.7 0-.3.1-.7.5-.7.3 0 .6.2.6.4h.2v-.6h-.2H491.4a1 1 0 00-1 1c0 .3.3.7.6.8zm1-.7c0 .2-.2.4-.4.4 0 0 .1.2.3.2l.4-.5-.2-.1zm7.9-.4c.3 0 .4-.1.4-.3 0-.1 0-.3-.4-.3h-.2V148.4h.2zm.8 1c-.2 0-.4 0-.5-.4 0-.1 0-.4-.4-.4h-.2v.5l.1.1h.2v.3h-1v-.3h.1l.2-.1V148l-.1-.2h-.2v-.2h1c.2 0 .9 0 .9.5 0 .2-.2.4-.4.5l.2.2v.1c0 .2 0 .3.2.3l.1-.2h.1v.4h-.4zm-3.9 0v-.2l.2-.1V148v-.2h-.2v-.2h1.8v.7h-.2c0-.3-.1-.5-.5-.5h-.3l-.1.2v.4h.2v-.2h.3v.7h-.2l-.1-.3h-.2v.5l.1.1h.4c.2 0 .4-.1.4-.4h.2v.7h-1.8zm-9.7-.9c0-.6-.4-1-1.2-1h-.9v.2h.2v1.5h-.1.7l-.1-.1v-1.2l.1-.1h.1c.5 0 .7.3.7.7 0 .4-.2.7-.6.7 0 .1.1.2.3.2.4 0 .8-.4.8-.9zm.5 0v.8l.4-.1v-1h-.7v.2h.2l.1.2zm1.7-.2l-.4-.3c0-.2.2-.2.3-.2.3 0 .6.2.6.4h.2v-.6h-.2-.6c-.4 0-.7.1-.7.5s.4.5.8.6c.2 0 .5.1.5.3 0 .2-.2.2-.4.3l.4.1c.2 0 .3-.2.3-.5 0-.4-.4-.5-.8-.6zm3.8 1h.9c.3 0 .5-.3.5-.8 0-.6-.5-1-1-1s-1 .4-1 1c0 .5.2.7.6.9z" fill="#994F14"/>
              </g>
              <g clip-path="url(#clip1)" id="nvLogo">
                <path id="Discover2" fill-rule="evenodd" clip-rule="evenodd" d="M665.5 157.6c-.2 0-.2 0-.2.2l.1.1-.4 2-.4-2.6.2-.2s0-.2-.2-.2l-.2.2.2.2s0 0 0 0l-.4 2.6-.6-3.5.2-.2-.2-.2c-.1 0-.2 0-.2.2 0 0 0 .2.2.2l-.6 3.5-.5-2.6.2-.2c0-.1 0-.2-.2-.2 0 0-.2 0-.2.2l.2.2s0 0 0 0l-.4 2.6-.4-2 .2-.1-.2-.2c-.1 0-.2 0-.2.2l.2.1s0 0 0 0l.4 2.3.5-2.2.4 2.2.6-2.7.6 2.7.4-2.2.4 2.2.4-2.3h0l.3-.1-.2-.2h0z" stroke="#C0A062" stroke-width=".1"/>
              </g>
              <g id="royalLogo">
                <g id="Discover3">
                  <mask id="path-18-inside-2" fill="#fff">
                    <path d="M936.2 157.9c-.2 0-.4 0-.5-.2v-.1-.7l-.3.2-.3.1h-.1v.1c-.2.3-.4.4-.7.4 0 0-.5-.1-.6-.6v-.1c0-.2 0-.5.3-.8a.7.7 0 01.4 0h.1l.8-.5h.1v-.2-.8l.4-.3a.8.8 0 01.6.1l.3-.2h-.1c-.4-.3-.6-.7-.8-1v-.1h-.2c-.5.3-1 .5-1.1 1.2l-.2 1.1-.7-1.3v-.1l-.3-.7v-.2l-1.3.4v-.5a3 3 0 011.5-2.1l.6-.4h.1v-.1l.1-.6.1-.1.2-.3.8-.4.2-.1-.1-.2a8.6 8.6 0 01-1.4-3.8v-1 .1c.2.3 1.4 2.5 2.5 3.9l.2.3v-.4c.2-.8 0-1.5-.2-2l-.2-.4 1.3-1.5s2.2 1 3.1 1H941.4a15 15 0 002.7-1l1.3 1.5-.2.3c-.2.6-.3 1.3-.3 2.1v.5l.4-.4a37 37 0 002.4-3.9v-.1 1a8.7 8.7 0 01-1.4 3.8v.2h.1l.2.1.6.4.2.3v.1c.2.2.2.4.2.6v.1l.8.4c.5.3.9.8 1.1 1.3l.3.8v.5l-1.2-.4v.2l-.4.8-.6 1.3-.2-1-.1-.5c-.2-.4-.6-.6-1-.7l-.2-.1v.1l-.8 1h-.2l.2.3h.2c.1-.2.3-.2.5-.2a.6.6 0 01.4.4V155.7h.1l.8.4a.7.7 0 01.5.1.8.8 0 01-.2 1.5c-.4 0-.6-.1-.7-.4h-.1l-.3-.2-.3-.2v.3l-.1.5-.4.2c-.3 0-.5-.2-.6-.4-.1-.3-.1-.5 0-.8v-.1h-.1a91 91 0 01-1.9-1.2h-.1c-1 .4-1.5.8-1.7 1l-.4.3-.3-.3c-.3-.2-.8-.6-1.7-1h-.2l-1.8 1.1h-.1v1c-.2.2-.4.4-.6.4z"/>
                  </mask>
                  <path d="M936.2 157.9c-.2 0-.4 0-.5-.2v-.1-.7l-.3.2-.3.1h-.1v.1c-.2.3-.4.4-.7.4 0 0 0 0 0 0h0v0h0s-.5-.1-.6-.6v-.1c0-.2 0-.5.3-.8h0a.7.7 0 01.4 0h.1l.8-.5h.1v-.2-.8l.4-.3a.8.8 0 01.6.1h0l.3-.2h-.1c-.4-.3-.6-.7-.8-1v-.1h-.2c-.5.3-1 .5-1.1 1.2l-.2 1.1-.7-1.3v-.1l-.3-.7v-.2l-1.3.4v-.5a3 3 0 011.5-2.1l.6-.4h.1v-.1l.1-.6.1-.1.2-.3.8-.4.2-.1-.1-.2a8.6 8.6 0 01-1.4-3.8v-1 .1c.2.3 1.4 2.5 2.5 3.9l.2.3v-.4c.2-.8 0-1.5-.2-2l-.2-.4 1.3-1.5h0s2.2 1 3.1 1H941.4a15 15 0 002.7-1h0l1.3 1.5h0l-.2.3c-.2.6-.3 1.3-.3 2.1v.5l.4-.4a37 37 0 002.4-3.9v-.1 1a8.7 8.7 0 01-1.4 3.8v.2h.1l.2.1h0l.6.4.2.3v.1c.2.2.2.4.2.6h0v.1l.8.4c.5.3.9.8 1.1 1.3l.3.8v.5l-1.2-.4v.2l-.4.8-.6 1.3-.2-1-.1-.5c-.2-.4-.6-.6-1-.7l-.2-.1v.1l-.8 1h-.2l.2.3h.2c.1-.2.3-.2.5-.2a.6.6 0 01.4.4V155.7h.1l.8.4h0a.7.7 0 01.5.1h0a.8.8 0 01-.2 1.5h0s0 0 0 0c-.4 0-.6-.1-.7-.4h0-.1l-.3-.2-.3-.2v.3l-.1.5-.4.2s0 0 0 0c-.3 0-.5-.2-.6-.4 0 0 0 0 0 0-.1-.3-.1-.5 0-.8v-.1h-.1a91 91 0 01-1.9-1.2h0-.1c-1 .4-1.5.8-1.7 1l-.4.3-.3-.3c-.3-.2-.8-.6-1.7-1h-.2l-1.8 1.1h-.1v1c-.2.2-.4.4-.6.4 0 0 0 0 0 0h0z" stroke="#000" stroke-width=".2" mask="url(#path-18-inside-2)"/>
                </g>
              </g>
            </g>
          </mask>
        </defs>
        <rect x="0" y="0" width="100vw" height="120vh" mask="url(#mask), url(#mask" style="fill: #ffffff;" fill-opacity="1"/>    
      </svg>