<?xml version="1.0" encoding="UTF-8"?>
<!DOCTYPE svg PUBLIC "-//W3C//DTD SVG 1.1//EN" "http://www.w3.org/Graphics/SVG/1.1/DTD/svg11.dtd">
<!-- Creator: CorelDRAW -->
<svg xmlns="http://www.w3.org/2000/svg" xml:space="preserve" width="340.262mm" height="148.899mm" style="shape-rendering:geometricPrecision; text-rendering:geometricPrecision; image-rendering:optimizeQuality; fill-rule:evenodd; clip-rule:evenodd"
viewBox="0 0 406.413 177.847"
 xmlns:xlink="http://www.w3.org/1999/xlink">
 <defs>
  <style type="text/css">
   <![CDATA[
    .str0 {stroke:#1F1A17;stroke-width:0.101167}
    .fil4 {fill:none}
    .fil8 {fill:#1F1A17}
    .fil6 {fill:#4D4948}
    .fil7 {fill:#838281}
    .fil5 {fill:#C2C1C1}
    .fil0 {fill:#CF2436}
    .fil2 {fill:#E77817}
    .fil1 {fill:#EB891B}
    .fil3 {fill:white}
   ]]>
  </style>
 </defs>
 <g id="Layer_x0020_1">
  <metadata id="CorelCorpID_0Corel-Layer"/>
  <g id="_79746040">
   <path id="_78773088" class="fil0" d="M127.596 75.1798l39.9023 -75.0314 -19.2707 -0.148346 -51.0774 43.4542 -34.7331 26.5084c0,0 -12.8159,14.1342 -62.4174,11.2849 0,-0.00226938 15.1264,2.35502 28.6368,5.69555 7.17864,1.80428 16.3012,5.56524 20.2957,8.04531 2.73305,1.69511 5.60465,3.59064 7.94773,5.29709 4.38731,3.19959 13.144,12.4888 18.7643,15.6883 7.22618,4.11952 19.6494,7.94139 38.6821,3.88589 0.00286658,0 -23.3774,0.589919 -33.3573,-8.53956 -1.83664,-1.68531 -7.9101,-8.67512 1.48585,-14.2486 3.40789,-2.27977 8.58638,-3.64642 18.0406,-5.30987 0,0 26.6474,-2.90206 33.8259,-1.40582 0.00214994,-0.00298603 -4.12155,-1.74109 -6.71259,-4.86686 -3.58538,-3.80002 -0.0149301,-10.3092 -0.0127802,-10.3092z"/>
   <path id="_78773016" class="fil1" d="M120.237 44.3311c2.27499,-0.294661 11.5388,-2.001 12.5083,-2.20596 4.66286,-0.972608 9.71701,-2.13131 14.0788,-3.1069l0.516344 -0.969622c-6.44205,0.515269 -14.1916,1.14819 -19.8695,1.6582 -3.78843,0.345782 -6.65502,0.632799 -7.59693,0.79703 -1.22511,0.210216 -2.43325,0.443723 -3.62085,0.688578 -4.32185,0.887566 -8.38882,1.99048 -12.122,3.2396 3.94621,0.611777 13.7257,0.213202 16.1058,-0.100928z"/>
   <path id="_78772944" class="fil1" d="M119.719 51.5576c2.26998,0.340526 11.6333,1.23323 12.6206,1.30477 2.24298,0.157543 4.58044,0.305888 6.89091,0.438468l0.966636 -1.81491c-4.37238,-0.869411 -8.78166,-1.73046 -12.3627,-2.40781 -3.74304,-0.714855 -6.58192,-1.21961 -7.53159,-1.3154 -1.23514,-0.135566 -2.46037,-0.241749 -3.66565,-0.332165 -4.39005,-0.32703 -8.58984,-0.38042 -12.5005,-0.1966 3.66278,1.6717 13.2072,3.97333 15.5823,4.32365z"/>
   <path id="_78772872" class="fil1" d="M117.454 58.3907c2.10945,0.951467 10.9394,4.3854 11.8761,4.72592 1.28566,0.464864 2.60596,0.934984 3.93702,1.40283l1.08739 -2.04614c-3.0221,-1.53088 -5.95832,-3.00908 -8.45702,-4.24983 -3.43763,-1.71696 -6.05853,-2.98196 -6.95063,-3.33826 -1.16264,-0.47012 -2.31751,-0.906319 -3.46033,-1.33117 -4.16144,-1.51511 -8.2056,-2.72206 -12.0268,-3.61775 3.12935,2.62101 11.7867,7.46602 13.9942,8.45439z"/>
   <path id="_78772800" class="fil1" d="M113.6 64.368c1.8069,1.49624 9.49616,7.24004 10.3158,7.82685 1.25007,0.888283 2.53848,1.79162 3.83609,2.69566l1.01501 -1.91141 0.0646176 -0.11968c-2.51292,-2.27452 -4.95119,-4.47283 -7.03579,-6.333 -2.90361,-2.60214 -5.12378,-4.54509 -5.90086,-5.13202 -1.00713,-0.776725 -2.01425,-1.51499 -3.01648,-2.23821 -3.64785,-2.60752 -7.25879,-4.87964 -10.734,-6.79333 2.38786,3.38651 9.56639,10.4479 11.4557,12.0051z"/>
   <path id="_78772728" class="fil1" d="M108.416 69.0856c1.37799,1.94295 7.40666,9.59959 8.05582,10.3891 2.86372,3.47609 6.02365,7.179 8.82203,10.4795 0.416252,-0.0105108 0.821754,-0.0157662 1.22308,-0.0211411 -3.5179,-5.46944 -7.62464,-11.8189 -10.7092,-16.5156 -2.17275,-3.30876 -3.8411,-5.79349 -4.44763,-6.57774 -0.78413,-1.02301 -1.57829,-2.01222 -2.36804,-2.98483 -2.89143,-3.52136 -5.8206,-6.70817 -8.71203,-9.51216 1.47593,3.92806 6.69061,12.7177 8.13596,14.7428z"/>
   <path id="_78772656" class="fil1" d="M102.257 72.2219c0.856631,2.25337 4.81061,11.3083 5.24669,12.247 0.962456,2.07254 1.9795,4.2257 2.99451,6.35175 0.636382,-0.0505236 1.28483,-0.103197 1.94892,-0.153721 -1.44333,-4.34323 -2.90146,-8.69399 -4.10674,-12.2311 -1.29271,-3.79249 -2.29769,-6.65239 -2.69113,-7.57447 -0.505713,-1.20468 -1.03484,-2.37616 -1.55835,-3.53486 -1.93184,-4.19405 -3.9867,-8.07469 -6.09328,-11.5749 0.465939,4.20229 3.35737,14.1153 4.25939,16.4703z"/>
   <path id="_78772584" class="fil1" d="M95.5446 73.5585c0.280567,2.41307 1.8892,12.2416 2.07672,13.27 0.321057,1.72222 0.664092,3.49269 1.01286,5.26759l0.167576 -0.0315324 0.0298603 -0.00226938 0.0852809 -0.0166023 0.0277103 -0.00525541 0.00274714 0 0.197555 -0.0369073 0.0275909 -0.00537485 0.0575706 -0.0105108 0.0277103 -0.00525541 0.0298603 -0.00525541 0.0304575 -0.00525541 0.0277103 -0.00525541 0.0298603 -0.00310547 0.0575706 -0.0105108 0.0277103 -0.00525541 0.0297408 -0.00525541 0.0298603 -0.00525541 0.083131 -0.0158857 0.00214994 0 0.0156468 -0.00298603 0.0149301 -0.00226938 0.0120635 -0.00298603 0.0453876 -0.00836087 0.0298603 -0.00525541 0.0554206 -0.0105108 0.00214994 0 0.0304575 -0.00525541 0.144882 -0.0263965 0.00286658 0 0.0298603 -0.00525541 0.0277103 -0.00525541 0.0298603 -0.00537485 0.00776367 0 0.198153 -0.0376239 0.00214994 0 0.0298603 -0.00226938 0.210933 -0.0398933 0.213083 -0.0211411c-0.278417,-3.76084 -0.556834,-7.42302 -0.804794,-10.5066 -0.320341,-4.01847 -0.595891,-7.05837 -0.749254,-8.05809 -0.197436,-1.30489 -0.420552,-2.5804 -0.643548,-3.84302 -0.842298,-4.57901 -1.88215,-8.89513 -3.05972,-12.8527 -0.576064,4.18282 -0.200303,14.556 0.0930446,17.0784z"/>
   <path id="_78772512" class="fil1" d="M88.7367 73.0084c-0.323088,2.40781 -1.16551,12.3397 -1.23299,13.3868 -0.175459,2.7567 -0.328104,5.64813 -0.470837,8.47554 0.578811,-0.201855 1.19537,-0.398575 1.84942,-0.592189 0.791297,-4.49158 1.57041,-8.98853 2.18971,-12.6642 0.671259,-3.96807 1.14783,-6.97404 1.24016,-7.98439 0.129952,-1.3154 0.228013,-2.60967 0.318191,-3.89043 0.300394,-4.65665 0.355815,-9.10535 0.183223,-13.2543 -1.57602,3.87992 -3.74591,14.0039 -4.07688,16.5231z"/>
   <path id="_78772440" class="fil1" d="M82.2919 70.606c-0.896405,2.23749 -4.13373,11.6035 -4.45694,12.5972 -2.45105,7.62273 -5.02154,16.4176 -6.73325,21.5339 2.99737,-6.5861 8.04865,-17.712 11.3486,-25.1749 1.6158,-3.64868 2.81116,-6.42103 3.14715,-7.36963 0.445993,-1.23848 0.856512,-2.4612 1.25497,-3.67269 1.43043,-4.41478 2.56332,-8.69925 3.41279,-12.7547 -2.471,3.3164 -7.03866,12.4994 -7.97329,14.8409z"/>
   <path id="_78772368" class="fil1" d="M76.6545 66.5211c-1.41335,1.91058 -6.82558,10.0697 -7.38169,10.9421 -4.22953,6.68619 -8.85476,14.4792 -11.7562,18.9521 4.50233,-5.54421 12.0944,-14.8967 17.103,-21.2009 2.45332,-3.08289 4.28507,-5.43492 4.84118,-6.25608 0.731576,-1.07437 1.42553,-2.14492 2.1073,-3.20257 2.45535,-3.8724 4.60039,-7.69738 6.40658,-11.3858 -3.19409,2.52749 -9.84708,10.1442 -11.3201,12.1512z"/>
   <path id="_78772296" class="fil1" d="M59.744 72.057c-4.94844,4.66417 -10.0225,9.60258 -13.3223,12.5874 5.69985,-4.11713 15.3195,-11.0702 21.6962,-15.7795 3.11657,-2.30688 5.46192,-4.07425 6.20413,-4.71995 0.966636,-0.837043 1.89923,-1.67707 2.81618,-2.51173 3.31759,-3.06701 6.3213,-6.1763 8.96763,-9.23793 -0.529124,0.219891 -1.15559,0.528765 -1.83951,0.892702l-21.849 16.6723 -0.0020305 0 0 0.00226938 -0.00501652 0.00298603 -0.00286658 0.00525541 0 0 -0.00501652 0.00537485 -0.00489708 0.00525541 -0.00991361 0.00752478 -0.00788311 0.0112275 -0.00214994 0 -0.00776367 0.0106303 -0.0127802 0.0105108 -0.0120635 0.0127802 -0.0127802 0.0136163 -0.00214994 0.00298603 -0.0127802 0.0127802 -0.0149301 0.0136163 -0.0177967 0.0187522 -0.0176773 0.018155 -0.00716646 0.00525541 -0.0149301 0.0134968 -0.0205439 0.0211411 -0.0447904 0.0429988 -0.00991361 0.00752478 -0.0149301 0.0157662 -0.083131 0.0776367 -0.0120635 0.0105108c-0.396305,0.358681 -1.14066,0.977864 -2.31536,1.74862z"/>
   <path id="_78772224" class="fil1" d="M115.78 30.3039c1.8118,-1.49922 8.93001,-8.01067 9.66158,-8.71812 5.64299,-5.39718 11.9096,-11.7624 15.7478,-15.3561l-2.38786 1.78851 -36.4241 30.9926c3.82904,-1.82327 11.5737,-7.1925 13.4026,-8.70689z"/>
   <path id="_78746704" class="fil2" d="M118.977 37.2109c2.12438,-0.913843 10.6561,-5.10563 11.5431,-5.57049 6.82271,-3.55074 14.4999,-7.84274 19.118,-10.1789 -6.50739,2.40996 -17.4915,6.49556 -24.8058,9.29371 -3.57332,1.3719 -6.27161,2.44018 -7.1409,2.85452 -1.1329,0.539396 -2.24227,1.09766 -3.33037,1.66119 -3.95613,2.04614 -7.61687,4.2257 -10.9167,6.45877 3.96102,-0.494964 13.3101,-3.56424 15.5326,-4.51881z"/>
   <path id="_78746632" class="fil0" d="M162.196 83.6929l-1.0647 2.0379 11.2982 0c0,0 2.1073,0.103914 3.85806,-3.69682l3.7686 -7.24231 2.77641 0 1.41347 -2.86503 -32.7912 0 -1.70884 2.93968 2.91914 0 -5.12665 10.713c0,0 -1.78421,4.2318 2.99164,4.2318l12.5204 -0.00310547c0,0 1.25079,-0.25011 0.639248,1.66656l-0.406338 1.04941 10.514 0 1.14771 -2.94195c0,0 1.25998,-2.03038 -2.51077,-2.03038l-12.9444 0c0,0 -1.5931,-0.149182 -0.779114,-2.04089l5.26436 -10.7191 4.6281 0 -4.1323 7.84871c0,0 -0.285583,1.13158 -2.27499,1.05251z"/>
   <path id="_78746560" class="fil0" d="M205.664 81.5051c1.50567,-0.299797 2.8538,-2.41307 2.8538,-2.41307l1.85946 -4.3719c0.931879,-2.56452 -2.78345,-2.8839 -2.78345,-2.8839l-16.1542 -0.00226938c-3.3453,0 -4.84321,1.90007 -4.84321,1.90007l-1.98451 3.47072 10.5261 0 1.01991 -1.6717c0,0 0.388422,-0.746626 1.02206,-0.66672l2.00434 0c0,0 1.02767,0.0474181 0.115738,1.54963l-0.970219 1.78863c0,0 -0.748537,1.38169 -2.33746,1.34694l-4.32185 0.032488 -1.30047 2.60143 2.70821 0c3.60306,-0.231357 2.12999,1.99646 2.12999,1.99646l-0.95947 1.99873c-0.629335,1.71386 -2.75873,1.38169 -2.75873,1.38169 -2.20751,-0.00226938 -1.39842,-1.15344 -1.39842,-1.15344l0.798941 -1.52036 -10.4734 0.0158857 -1.34801 2.71669c-1.042,2.46049 1.41048,2.48234 1.41048,2.48234l19.5045 -0.00298603c2.62579,0 3.62014,-1.72748 3.62014,-1.72748l2.05976 -3.77147c1.15488,-2.03563 0,-3.0934 0,-3.09639z"/>
   <path id="_78746488" class="fil0" d="M230.247 71.9508l-15.6449 0 -1.36091 2.71585 2.21253 0 -2.37795 4.54222c-0.390692,0.420313 -1.13995,0.377434 -1.13995,0.377434l-2.72887 0 -1.29474 2.59916 1.96875 0c1.351,0 1.42625,0.239479 1.26787,0.699088l-3.9412 7.67014 10.6113 0 8.04853 -15.888 2.78847 0 1.59107 -2.71585z"/>
   <path id="_78746416" class="fil0" d="M251.873 71.9508l-15.6321 0 -1.37357 2.71585 2.21241 0 -2.43552 3.87765c-0.851495,1.13541 -2.60513,1.04499 -2.60513,1.04499l-3.48099 -0.00298603 -1.29271 2.59916 1.10017 0c1.38074,-0.0738146 1.13505,0.446709 0.703866,1.23096l-1.51845 2.92846c-0.465939,0.765378 -1.01716,3.70506 1.6066,3.85651l12.3549 0 1.08249 -2.46658c-1.13003,-0.0263965 -2.92917,-0.0263965 -3.95899,-0.0263965 -1.35804,-0.00226938 -0.701716,-1.18282 -0.701716,-1.18282l2.52845 -4.2392c1.86161,0.225982 3.13939,-1.15571 3.80133,-2.18183l3.22957 -5.43791 2.78847 0 1.59095 -2.71585z"/>
   <polygon id="_78746344" class="fil0" points="287.747,67.4802 278.157,67.4802 276.471,70.2421 286.07,70.2421 "/>
   <path id="_78746272" class="fil0" d="M359.761 76.5139l-2.99725 5.99845c-0.355815,0.500219 -0.931879,0.885177 -2.95115,0.885177l-10.5466 -0.00214994c0,0 -1.80893,-0.439304 -1.08942,-2.16379 0,-0.00298603 0.112155,-0.967353 1.50281,-0.967353l9.11048 -0.00298603c0,0 1.61162,0.00298603 2.59103,-1.97687l1.80129 -3.56424 2.28276 0c0,0 1.27563,0.0746506 0.296094,1.79377zm-18.652 -4.58725l-1.35088 2.79349 4.97102 0c1.2558,0 1.59669,0.725485 1.11797,1.58665l-0.348768 0.762392c0,0 -0.558267,0.752598 -2.03695,0.752598l-9.17295 -0.0451487c0,0 -1.50579,-0.225982 -2.29769,1.53315l-1.27288 2.73998c0,0 -1.684,3.77971 3.98181,4.10149l17.9652 0c0,0 1.8161,-0.0400127 1.75363,1.00199l-1.71386 3.41506 10.2533 0 7.71195 -14.9019c0,0 0.576661,-0.943942 1.74157,-0.943942l2.98662 -0.00226938c0,0 1.28053,0.0746506 0.137716,2.10718l-6.89306 13.741 10.2412 0 7.72688 -14.9396c0,0 0.49365,-0.906319 1.74659,-0.906319l1.4659 -0.00226938 1.58821 -2.79349 -50.3026 0z"/>
   <path id="_78746200" class="fil0" d="M285.692 74.9409l1.63359 -3.05638 -25.6097 0 -1.70896 3.13557 12.2499 0c0,0 1.55835,-0.151451 1.0647,0.677947l-0.453159 0.760242 -12.0901 0c0,0 -1.488,0.0346379 -2.15699,1.14281l-2.06752 3.83549c-0.443246,0.996019 -0.132818,2.1841 3.31043,2.1841l6.75463 -0.00226938c0,0 2.28061,-0.220846 1.49576,1.512l-0.994347 1.88717c0,0 -0.501413,1.13457 -1.4284,1.05777l-1.82386 -0.00298603c0,0 -1.14281,0.223713 -0.568898,-1.12406l0.794044 -1.6582 -9.52602 0 -1.70884 3.16495c0,0 -1.29832,1.46984 0.300394,1.95358l-0.546204 1.06601c0,0 -0.664092,1.512 0.468806,1.61066l5.98818 -0.00298603c0,0 1.22308,-0.302902 1.69893,-1.60768l0.431182 -0.906319 12.7682 0c0,0 2.19258,0.300514 3.40287,-2.5675l1.85946 -3.62754c0,0 1.76641,-3.23506 -3.63375,-3.61476l-7.04284 -0.00298603c0,0 -1.71888,0.303619 -0.931879,-1.06303 0,-0.00226938 0.492933,-0.823426 1.92408,-0.823426l10.6688 -0.00298603 0.00286658 -0.00537485c1.01417,0.079906 1.69105,-0.616196 2.01915,-1.08405l1.5335 -2.83577 1.92193 0z"/>
   <path id="_78746128" class="fil0" d="M320.931 70.6188l-0.734323 1.27324 -17.7352 -0.0662898c1.64638,-1.96409 3.1401,-1.73811 3.1401,-1.73811l13.0943 0c2.33746,0 2.2351,0.531154 2.2351,0.531154zm13.1589 1.26572l-3.40491 0.0504041 1.41836 -2.49596c0,0 0.177609,-1.96409 -3.94908,-1.88717l-29.2455 -0.00226938c0,0 -4.39017,0.212486 -6.41219,4.3455l-2.55556 -0.00298603 -1.55333 2.97432 2.65852 0 -8.45141 15.702 10.2477 0 8.20345 -15.5482 16.5071 0c0,0 1.55823,-0.151451 1.05753,0.677947l-0.445993 0.760242 -12.0672 0c0,0 -2.14217,0.220727 -3.41995,2.86503l-0.629335 1.20695c0,0 -1.28769,2.8673 3.13234,3.09042l6.75523 -0.00226938c0,0 2.27499,-0.220846 1.50078,1.512l-1.00008 1.88717c0,0 -0.500697,1.13457 -1.42756,1.05777l-1.13576 -0.00298603c0,0 -1.14699,0.223713 -0.568181,-1.12406l0.77135 -1.6582 -9.97703 0 -1.70669 3.16495c0,0 -0.55122,2.03336 2.2302,2.11327l18.6371 0c0,0 2.21742,0.300514 3.41004,-2.5675l1.85372 -3.62754c0,0 1.77418,-3.23506 -3.62515,-3.61476l-7.05359 -0.00298603c0,0 -1.70108,0.303619 -0.914799,-1.06303 0,-0.00226938 0.50643,-0.823426 1.90986,-0.823426l10.666 -0.00298603 0.00501652 -0.00537485c1.07736,0.0821754 1.77919,-0.749612 2.08245,-1.18808l1.48585 -2.73174 3.26719 0 1.7436 -3.05638z"/>
   <path id="_78746056" class="fil0" d="M359.488 115.323l-3.90644 0 6.55707 -7.55106 -2.65064 7.55106zm-7.2312 -10.9052l-14.931 18.1498 11.9643 0 2.30473 -2.67906 6.28224 0 -0.929729 2.72421 12.7207 0 5.04423 -18.1949 -22.4555 0z"/>
   <polygon id="_78745984" class="fil0" points="330.092,104.418 320.237,122.567 334.278,122.567 343.925,104.418 "/>
   <polygon id="_78745912" class="fil0" points="238.28,104.447 228.476,122.567 242.517,122.567 252.081,104.418 "/>
   <polygon id="_78745840" class="fil0" points="276.331,104.418 272.72,111.405 269.152,104.418 256.486,104.418 247.193,122.57 258.761,122.57 262.823,115.139 266.884,122.57 278.578,122.57 288.4,104.418 "/>
   <path id="_78745768" class="fil0" d="M307.295 111.804l-1.37501 3.31413c-1.31325,3.62515 -3.41064,3.42031 -3.41064,3.42031l-2.08174 -0.00226938 3.98097 -8.6541 2.28765 0.058765c1.34096,0.345782 0.598758,1.86543 0.598758,1.86316zm11.7215 -7.35375l-25.7405 -0.032488 -9.71139 18.1498 28.2406 0c0,0 4.36736,0.393917 6.64295,-5.03336l4.55488 -9.0602c0,0 3.03213,-4.02146 -3.98658,-4.02373z"/>
   <path id="_78745696" class="fil0" d="M151.33 115.323l-3.90357 0 6.55707 -7.55106 -2.6535 7.55106zm-7.38384 -10.9127l-14.7081 18.1603 11.9871 0 2.2351 -2.68205 6.26098 0 -0.914082 2.68205 12.661 0 5.15149 -18.1603 -22.6735 0z"/>
   <polygon id="_78745624" class="fil0" points="173.68,104.476 164.001,122.567 178.042,122.567 187.651,104.476 "/>
   <path id="_78745552" class="fil0" d="M206.504 111.546l-0.78413 1.28375c0,0 -0.711749,1.28077 -4.49313,0.748895l1.71959 -3.69682 2.84377 0c0,0 1.43055,0.305888 0.713899,1.66417zm12.4131 -7.08548l-26.5671 0 -9.68726 18.1098 13.9616 0 3.18967 -6.37361 3.9185 6.37361 13.9538 0 -4.22391 -5.111c2.89358,0.220727 4.36449,-2.5675 4.36449,-2.5675l3.03918 -5.9668c1.63144,-3.92507 -1.94892,-4.4622 -1.94892,-4.46447z"/>
   <polygon id="_78745480" class="fil3" points="0,135.336 397.293,135.336 "/>
   <line id="_78745408" class="fil4 str0" x1="0" y1="135.336" x2="397.293" y2= "135.336" />
   <path id="_78745336" class="fil5" d="M374.867 156.05c1.05753,-1.56253 2.2351,-3.05877 3.53068,-4.48334 1.30047,-1.42696 2.6762,-2.73257 4.11164,-3.91229l-1.53553 6.53784 -6.10678 1.85779z"/>
   <path id="_78745264" class="fil6" d="M385.541 158.875c-1.79914,-0.1966 -3.61596,-0.525779 -5.42501,-1.00426 -1.81395,-0.483617 -3.57045,-1.09241 -5.24943,-1.82088l6.10678 -1.8548 4.56766 4.67994z"/>
   <path id="_78745192" class="fil7" d="M382.509 147.654c0.74149,1.7516 1.38074,3.58526 1.89433,5.48533 0.513477,1.90831 0.894852,3.82187 1.1378,5.73544l-4.56766 -4.68292 1.53553 -6.53784z"/>
   <path id="_78745120" class="fil7" d="M372.708 169.488c-1.07031,-1.54676 -2.04973,-3.20042 -2.9269,-4.94593 -0.877175,-1.7516 -1.62081,-3.54023 -2.23737,-5.35812l5.38942 3.57176 -0.225146 6.73229z"/>
   <path id="_78745048" class="fil6" d="M378.54 159.593c-0.733726,1.75698 -1.58809,3.48147 -2.57825,5.16367 -0.992197,1.68233 -2.08174,3.26373 -3.25441,4.73357l0.225146 -6.73456 5.60752 -3.16268z"/>
   <path id="_78744976" class="fil5" d="M367.543 159.184c1.80619,-0.207947 3.6408,-0.284747 5.50241,-0.213202 1.87152,0.0693952 3.70542,0.281761 5.49453,0.622288l-5.60752 3.16268 -5.38942 -3.57176z"/>
   <path id="_78744904" class="fil6" d="M384.093 175.819c-1.72162,0.60043 -3.50583,1.0819 -5.34188,1.42159 -1.84166,0.345901 -3.67843,0.545487 -5.49238,0.603536l4.86591 -4.32974 5.96835 2.30461z"/>
   <path id="_78744832" class="fil7" d="M377.02 166.878c1.35303,1.27778 2.63356,2.67608 3.83609,4.19334 1.20026,1.5181 2.28276,3.10475 3.23733,4.74706l-5.9662 -2.30688 -1.10722 -6.63352z"/>
   <path id="_78744760" class="fil5" d="M373.259 177.844c0.367878,-1.88203 0.869292,-3.75785 1.50567,-5.61874 0.643548,-1.86316 1.39567,-3.64857 2.25517,-5.34678l1.10722 6.63579 -4.86806 4.32974z"/>
   <path id="_79747144" class="fil7" d="M393.279 166.287c0.00716646,1.92419 -0.112872,3.87013 -0.371462,5.83123 -0.257754,1.9617 -0.646295,3.87765 -1.15703,5.72791l-2.3807 -6.24856 3.90919 -5.31059z"/>
   <path id="_79747072" class="fil5" d="M383.081 170.662c1.57041,-0.967353 3.21679,-1.8284 4.94558,-2.57276 1.73655,-0.744356 3.4909,-1.3418 5.25732,-1.80213l-3.9142 5.31059 -6.28869 -0.935701z"/>
   <path id="_79747000" class="fil6" d="M391.75 177.844c-1.57387,-0.951587 -3.10236,-2.03874 -4.57328,-3.25537 -1.47307,-1.22272 -2.83899,-2.53812 -4.09898,-3.92818l6.29156 0.93797 2.3807 6.24557z"/>
   <path id="_79746928" class="fil7" d="M387.58 154.073c1.72664,0.586814 3.43274,1.31015 5.10969,2.17645 1.68113,0.871681 3.2771,1.85492 4.77788,2.93968l-6.33694 0.47012 -3.55062 -5.58626z"/>
   <path id="_79746856" class="fil5" d="M388.348 165.716c-0.380778,-1.87893 -0.644265,-3.81136 -0.774217,-5.78369 -0.130668,-1.97985 -0.125771,-3.9357 0.00704702,-5.85751l3.55062 5.58709 -2.78345 6.05411z"/>
   <path id="_79746784" class="fil6" d="M397.468 159.189c-1.34025,1.2914 -2.78847,2.49823 -4.33189,3.60652 -1.54903,1.10519 -3.15492,2.08078 -4.79138,2.92081l2.78632 -6.05721 6.33694 -0.47012z"/>
   <polygon id="_79746712" class="fil8" points="401.254,161.262 401.53,161.262 401.53,158.713 402.572,158.713 402.572,158.445 400.212,158.445 400.212,158.713 401.254,158.713 "/>
   <polygon id="_79746640" class="fil8" points="406.022,158.445 406.413,158.445 406.413,161.262 406.137,161.262 406.137,158.825 406.132,158.825 404.958,161.262 404.704,161.262 403.536,158.825 403.529,158.825 403.529,161.262 403.254,161.262 403.254,158.445 403.657,158.445 404.837,160.896 "/>
   <polygon id="_79746568" class="fil8" points="282.93,158.11 284.644,158.11 284.644,170.564 283.437,170.564 283.437,159.811 283.401,159.811 278.238,170.564 277.11,170.564 271.958,159.795 271.926,159.795 271.926,170.564 270.718,170.564 270.718,158.11 272.482,158.11 277.711,168.943 "/>
   <path id="_79746496" class="fil8" d="M236.997 164.369c0,3.92053 2.56046,6.44814 6.33408,6.44814 3.51085,0 5.63523,-2.51698 5.91866,-5.00243l0.0347573 -0.305052 -1.265 0 -0.0404905 0.222996c-0.403352,2.38966 -2.18685,3.87001 -4.64793,3.87001 -3.63005,0 -5.08401,-2.70606 -5.08401,-5.23892 0,-3.09639 2.1024,-5.26245 5.12665,-5.26245 2.3027,0 3.95899,1.16706 4.42983,3.11753l0.0505236 0.210216 1.26775 0 -0.0773978 -0.33754c-0.576781,-2.66843 -2.63857,-4.20158 -5.6707,-4.20158 -4.28925,0 -6.37672,3.36155 -6.37672,6.47908zm16.0483 -6.21619l0 12.4007 9.43644 0 0 -1.21149c0,0 -7.73966,0 -8.22614,0 0,-0.462595 0,-4.14365 0,-4.60612 0.483617,0 7.80989,0 7.80989,0l0 -1.19345c0,0 -7.32627,0 -7.80989,0 0,-0.454234 0,-3.7231 0,-4.17745 0.483617,0 8.12808,0 8.12808,0l0 -1.21221 -9.33838 0zm-21.0443 0c0,0 0,9.05184 0,10.3492 -0.749254,-0.965083 -8.45905,-10.3492 -8.45905,-10.3492l-1.22033 0 0 12.4007 1.20253 0c0,0 0,-9.11072 0,-10.3462 0.746506,0.964367 8.46132,10.3462 8.46132,10.3462l1.21519 0 0 -12.4007 -1.19967 0zm-29.7946 0zm1.20528 0l-1.20456 0 0 12.4014 1.20456 0 0 -12.4014zm-1.20528 0l1.20528 0zm-12.1347 0l0 12.4007 8.4059 0 0 -1.21149c0,0 -6.71474,0 -7.19059,0 0,-0.52136 0,-11.1892 0,-11.1892l-1.21531 0zm-11.0303 0l0 12.4007 8.42644 0 0 -1.21149c0,0 -6.73253,0 -7.20839,0 0,-0.52136 0,-11.1892 0,-11.1892l-1.21806 0zm32.8544 1.71696c0.370745,0.852809 2.16487,5.03862 2.43266,5.66318 -0.633635,-0.00226938 -4.23956,0 -4.87809,0 0.270653,-0.626827 2.07684,-4.81037 2.44544,-5.66318zm-0.564001 -1.71696l-5.37735 12.4007 1.34311 0c0,0 1.51571,-3.53713 1.64136,-3.8325 0.305411,0 5.58482,0 5.89095,0 0.124935,0.295378 1.65844,3.8325 1.65844,3.8325l1.33033 0 -5.35466 -12.4007 -1.13218 0zm-41.9818 1.71696c0.362862,0.852809 2.16487,5.03862 2.42764,5.66318 -0.636382,-0.00226938 -4.23669,0 -4.87594,0 0.270653,-0.626827 2.07756,-4.81037 2.4483,-5.66318zm-0.56615 -1.71696l-5.37449 12.4007 1.34025 0c0,0 1.51571,-3.53713 1.64351,-3.8325 0.306127,0 5.58267,0 5.88593,0 0.129952,0.295378 1.66346,3.8325 1.66346,3.8325l1.32818 0 -5.35179 -12.4007 -1.13505 0zm-17.8551 1.21221c1.84381,0 2.74093,0.703627 2.74093,2.16296 0,1.62953 -0.954573,2.42143 -2.91424,2.42143 0,0 -4.17912,0 -4.64004,0 0,-0.462595 0,-4.12251 0,-4.58439 0.46379,0 4.81335,0 4.81335,0zm-6.02652 -1.21221l0 12.4007 1.21316 0c0,0 0,-4.90305 0,-5.39205 0.46379,0 4.73524,0 4.73524,0 2.08747,0 2.5761,0.440737 2.62579,2.37019 0.0483736,2.01449 0.130668,2.67679 0.386392,2.93968l0.0752478 0.0821754 1.25222 0 -0.195286 -0.395589c-0.192539,-0.387944 -0.257873,-1.1587 -0.280567,-3.16268 -0.0120635,-1.22797 -0.648445,-2.12079 -1.65354,-2.51173 1.31266,-0.624557 1.84883,-1.8843 1.84883,-2.91794 0,-2.29924 -1.32245,-3.41279 -4.04129,-3.41279l-5.9662 0zm-9.3158 1.71696c0.368714,0.852809 2.1749,5.03635 2.44329,5.66318 -0.634232,-0.00226938 -4.23454,0 -4.87582,0 0.272684,-0.624557 2.06967,-4.81037 2.43254,-5.66318zm-0.548234 -1.71696l-5.37246 12.4007 1.32042 0c0,0 1.53338,-3.53713 1.65916,-3.8325 0.307561,0 5.58972,0 5.89011,0 0.125771,0.295378 1.64434,3.8325 1.64434,3.8325l1.34801 0 -5.38022 -12.4007 -1.10937 0zm-15.9638 0l0 1.21221c0,0 4.07186,0 4.52502,0 0,0.520643 0,11.1885 0,11.1885l1.20528 0c0,0 0,-10.6679 0,-11.1885 0.461042,0 4.53004,0 4.53004,0l0 -1.21221 -10.2603 0zm-12.3955 8.32635c0,1.23108 0.343154,2.1374 1.01716,2.8599 0.902019,0.959828 2.50575,1.4487 4.51798,1.4487 1.12215,0 4.9838,-0.268145 4.9838,-3.66218 0,-2.99009 -2.57324,-3.26659 -4.8382,-3.50846l-0.00501652 -0.00298603c-2.33818,-0.252379 -4.06983,-0.523629 -4.06983,-2.21121 0,-0.833937 0.406338,-1.44273 1.24302,-1.84954 0.857228,-0.422702 1.78911,-0.481347 2.75156,-0.481347 0.738623,0 2.09941,0.11968 2.86658,0.933432 0.352948,0.377434 0.538321,0.974878 0.538321,1.56778l1.17554 0.0134968c0,-0.909305 -0.276387,-1.82088 -0.814707,-2.3973 -0.98933,-1.04714 -2.64574,-1.26787 -3.8638,-1.26787 -1.67624,0 -3.32261,0.379703 -4.33189,1.45622 -0.53414,0.558267 -0.801808,1.24386 -0.801808,2.02512 0,2.92619 2.8083,3.16566 5.01079,3.37588 1.04487,0.100928 2.02715,0.193614 2.75861,0.531154 0.772067,0.358562 1.1329,0.954573 1.1329,1.8714 0,0.581558 -0.180356,1.06828 -0.541187,1.45097 -0.854481,0.908588 -2.63081,1.00199 -3.27495,1.00199 -1.58821,0 -2.8716,-0.361548 -3.54776,-1.08178 -0.4915,-0.520643 -0.736593,-1.1587 -0.746506,-2.07565l-1.16061 0.00226938z"/>
   <path id="_79746424" class="fil8" d="M92.2695 165.536c0.268503,-0.624557 2.06693,-4.81025 2.42764,-5.66091 0.371462,0.850659 2.18052,5.03336 2.45117,5.66091 -0.636382,0 -4.24243,0 -4.87881,0zm2.99666 -7.37787l-1.11235 0 -5.37449 12.3955 1.31755 0c0,0 1.53912,-3.53713 1.66131,-3.82952 0.303261,0 5.58757,0 5.8937,0 0.125055,0.295378 1.63574,3.82952 1.63574,3.82952l1.35088 0 -5.37234 -12.3955z"/>
   <path id="_79746352" class="fil8" d="M288.423 158.179l0 12.4014 9.43859 0 0 -1.21448c0,0 -7.73691,0 -8.22841,0 0,-0.45734 0,-4.14365 0,-4.60397 0.48087,0 7.81001,0 7.81001,0l0 -1.19334c0,0 -7.32914,0 -7.81001,0 0,-0.454234 0,-3.72322 0,-4.17518 0.48087,0 8.13322,0 8.13322,0l0.00286658 -1.21448 -9.34626 0z"/>
   <polygon id="_79746280" class="fil8" points="313.758,158.118 315.474,158.118 315.474,170.57 314.271,170.57 314.271,159.819 314.236,159.819 309.061,170.57 307.942,170.57 302.788,159.8 302.755,159.8 302.755,170.57 301.55,170.57 301.55,158.118 303.309,158.118 308.536,168.945 "/>
   <path id="_79746208" class="fil8" d="M320.487 164.717l5.38727 0c1.40773,0 2.46037,0.505474 2.46037,2.3076 0,1.70562 -1.17972,2.37019 -2.75371,2.37019l-5.09392 0 0 -4.67779zm-1.19752 5.84473l6.48684 0c1.80189,0 3.85376,-0.946212 3.85376,-3.53713 0.00214994,-1.58964 -0.929729,-2.79122 -2.46025,-3.03309l0 -0.0339213c1.38779,-0.356412 2.00434,-1.4751 2.00434,-2.67679 0,-1.76737 -0.949676,-3.13103 -3.24521,-3.13103l-6.63949 0 0 12.412zm1.19752 -11.245l5.21396 0c1.32114,0 2.27284,0.494247 2.27284,2.01461 0,1.65593 -1.04762,2.21647 -2.68121,2.21647l-4.80559 0 0 -4.23108z"/>
   <path id="_79746136" class="fil8" d="M333.452 158.165l0 12.3991 9.43572 0 0 -1.21519c0,0 -7.73966,0 -8.22555,0 0,-0.456504 0,-4.14054 0,-4.60015 0.483736,-0.00298603 7.80511,0 7.80511,0l0 -1.19334c0,0 -7.32138,0 -7.80511,0 0,-0.454234 0,-3.72393 0,-4.17829 0.483736,0 8.13035,0 8.13035,0l0 -1.21209 -9.34053 0z"/>
   <path id="_79746064" class="fil8" d="M352.414 163.957c0,0 -4.18199,0 -4.64016,0 0,-0.45507 0,-4.12251 0,-4.57985 0.458176,0 4.80774,0 4.80774,0 1.85169,0 2.74368,0.704463 2.74368,2.16069 0,1.62655 -0.954573,2.41916 -2.91126,2.41916zm4.23454 6.21081c-0.190389,-0.39093 -0.255723,-1.15643 -0.27352,-3.15742 -0.0149301,-1.23323 -0.656209,-2.12593 -1.65557,-2.51925 1.30752,-0.619302 1.84166,-1.88191 1.84166,-2.91556 0,-2.29936 -1.32102,-3.41052 -4.03209,-3.41052l-5.97038 0 0 12.3991 1.21519 0c0,0 0,-4.9015 0,-5.39037 0.458176,0 4.73321,0 4.73321,0 2.08174,0 2.57324,0.436199 2.62794,2.37078 0.0404905,2.01461 0.130668,2.67082 0.380659,2.9367l0.0781144 0.0828921 1.25007 0 -0.195286 -0.396305z"/>
  </g>
 </g>
</svg>
