<?xml version="1.0" encoding="UTF-8"?>
<!DOCTYPE svg PUBLIC "-//W3C//DTD SVG 1.1//EN" "http://www.w3.org/Graphics/SVG/1.1/DTD/svg11.dtd">
<!-- Creator: CorelDRAW -->
<svg xmlns="http://www.w3.org/2000/svg" xml:space="preserve" width="140.539mm" height="140.616mm" style="shape-rendering:geometricPrecision; text-rendering:geometricPrecision; image-rendering:optimizeQuality; fill-rule:evenodd; clip-rule:evenodd"
viewBox="0 0 144.322 144.402"
 xmlns:xlink="http://www.w3.org/1999/xlink">
 <defs>
  <style type="text/css">
   <![CDATA[
    .fil0 {fill:#222121}
    .fil1 {fill:#F4F5F4}
   ]]>
  </style>
 </defs>
 <g id="Layer_x0020_1">
  <metadata id="CorelCorpID_0Corel-Layer"/>
  <g id="_182590632">
   <polygon id="_182591520" class="fil0" points="144.322,144.322 0,144.322 0,0 144.322,0 "/>
   <polygon id="_182591472" class="fil1" points="0,144.402 144.322,144.402 144.322,121.602 0,121.602 "/>
   <path id="_182591424" class="fil0" d="M15.2951 136.679l1.75901 0 0 -2.39858 1.33613 0c1.79321,0 3.23223,-0.959452 3.23223,-2.80965l0 -0.0227976c0,-1.63321 -1.15344,-2.76396 -3.06094,-2.76396l-3.26643 0 0 7.99499zm1.75901 -3.96319l0 -2.44438 1.35892 0c0.879455,0 1.42773,0.422783 1.42773,1.21074l0 0.0229003c0,0.685264 -0.513871,1.21074 -1.39333,1.21074l-1.39333 0z"/>
   <path id="_182591376" class="fil0" d="M25.0604 136.679l1.75881 0 0 -2.55847 1.38213 0 1.71311 2.55847 2.05579 0 -1.953 -2.85546c1.01655,-0.37688 1.71311,-1.18774 1.71311,-2.47837l0 -0.0229003c0,-0.75376 -0.239786,-1.38203 -0.685161,-1.82741 -0.525475,-0.525373 -1.31353,-0.810856 -2.32998,-0.810856l-3.65481 0 0 7.99499zm1.75881 -4.11179l0 -2.29578 1.74751 0c0.856657,0 1.38193,0.388381 1.38193,1.14235l0 0.0227976c0,0.673763 -0.491073,1.13064 -1.34773,1.13064l-1.78171 0z"/>
   <path id="_182591328" class="fil0" d="M39.3372 136.816c2.46697,0 4.26018,-1.86191 4.26018,-4.13469l0 -0.0227976c0,-2.27278 -1.77031,-4.11169 -4.23738,-4.11169 -2.46707,0 -4.26018,1.8617 -4.26018,4.13448l0 0.023003c0,2.27278 1.77031,4.11169 4.23738,4.11169l0 0zm0.0227976 -1.62202c-1.41612,0 -2.42127,-1.14214 -2.42127,-2.51267l0 -0.0227976c0,-1.37053 0.982147,-2.48987 2.39848,-2.48987 1.41623,0 2.42138,1.14214 2.42138,2.51267l0 0.023003c0,1.37053 -0.982249,2.48967 -2.39858,2.48967l0 0z"/>
   <polygon id="_182591280" class="fil0" points="47.2978,136.679 49.0567,136.679 49.0567,133.584 52.8714,133.584 52.8714,131.985 49.0567,131.985 49.0567,130.283 53.3854,130.283 53.3854,128.684 47.2978,128.684 "/>
   <polygon id="_182591232" class="fil0" points="56.9261,136.679 63.0138,136.679 63.0138,135.114 58.6736,135.114 58.6736,133.435 62.4427,133.435 62.4427,131.871 58.6736,131.871 58.6736,130.249 62.9567,130.249 62.9567,128.684 56.9261,128.684 "/>
   <path id="_182591184" class="fil0" d="M69.558 136.793c1.72471,0 2.93545,-0.890854 2.93545,-2.47827l0 -0.023003c0,-1.39333 -0.913857,-1.9758 -2.53567,-2.39837 -1.38193,-0.354185 -1.72461,-0.525475 -1.72461,-1.05095l0 -0.0227976c0,-0.388279 0.354082,-0.69656 1.02784,-0.69656 0.673968,0 1.37053,0.296883 2.07869,0.787956l0.913857 -1.32483c-0.810959,-0.650965 -1.80471,-1.01655 -2.96955,-1.01655 -1.63342,0 -2.79836,0.959452 -2.79836,2.40987l0 0.0227976c0,1.58762 1.03935,2.0332 2.64976,2.44428 1.33643,0.342683 1.61052,0.57107 1.61052,1.01645l0 0.023003c0,0.46807 -0.434182,0.75376 -1.15354,0.75376 -0.913857,0 -1.66762,-0.376983 -2.38718,-0.970851l-1.03935 1.24483c0.959452,0.856657 2.18149,1.27923 3.39212,1.27923l0 0z"/>
   <path id="_182591136" class="fil0" d="M78.8893 136.793c1.72471,0 2.93535,-0.890854 2.93535,-2.47827l0 -0.023003c0,-1.39333 -0.913857,-1.9758 -2.53567,-2.39837 -1.38193,-0.354185 -1.72451,-0.525475 -1.72451,-1.05095l0 -0.0227976c0,-0.388279 0.353979,-0.69656 1.02795,-0.69656 0.673763,0 1.37053,0.296883 2.07859,0.787956l0.913754 -1.32483c-0.810856,-0.650965 -1.80461,-1.01655 -2.96955,-1.01655 -1.63321,0 -2.79826,0.959452 -2.79826,2.40987l0 0.0227976c0,1.58762 1.03935,2.0332 2.64976,2.44428 1.33633,0.342683 1.61042,0.57107 1.61042,1.01645l0 0.023003c0,0.46807 -0.433977,0.75376 -1.15354,0.75376 -0.913754,0 -1.66751,-0.376983 -2.38708,-0.970851l-1.03935 1.24483c0.959349,0.856657 2.18138,1.27923 3.39212,1.27923l0 0z"/>
   <polygon id="_182591088" class="fil0" points="85.5704,136.679 87.3294,136.679 87.3294,128.684 85.5704,128.684 "/>
   <path id="_182591040" class="fil0" d="M95.1188 136.816c2.46707,0 4.26018,-1.86191 4.26018,-4.13469l0 -0.0227976c0,-2.27278 -1.77031,-4.11169 -4.23738,-4.11169 -2.46697,0 -4.26018,1.8617 -4.26018,4.13448l0.000102692 0.023003c0,2.27278 1.77021,4.11169 4.23728,4.11169l0 0zm0.0227976 -1.62202c-1.41612,0 -2.42138,-1.14214 -2.42138,-2.51267l0 -0.0227976c0,-1.37053 0.982249,-2.48987 2.39858,-2.48987 1.41633,0 2.42138,1.14214 2.42138,2.51267l0 0.023003c0,1.37053 -0.982249,2.48967 -2.39858,2.48967l0 0z"/>
   <polygon id="_182590992" class="fil0" points="102.851,136.679 104.587,136.679 104.587,131.597 108.459,136.679 109.955,136.679 109.955,128.684 108.219,128.684 108.219,133.607 104.473,128.684 102.851,128.684 "/>
   <path id="_182590944" class="fil0" d="M113.096 136.679l1.79311 0 0.730962 -1.79321 3.38072 0 0.730962 1.79321 1.83891 0 -3.42653 -8.05219 -1.62182 0 -3.42632 8.05219zm3.15213 -3.34663l1.06235 -2.59256 1.06214 2.59256 -2.12449 0z"/>
   <polygon id="_182590896" class="fil0" points="124.94,136.679 130.685,136.679 130.685,135.08 126.699,135.08 126.699,128.684 124.94,128.684 "/>
   <path id="_182590848" class="fil1" d="M82.1026 53.4058c-1.23436,0 -2.30574,0.708472 -2.84786,1.64841 -0.541495,0.93994 -2.0676,3.59597 -2.61721,4.53704 -0.550224,0.941583 0.168826,1.98021 1.13937,1.98021 0.970029,0 9.08085,0 9.08085,0 0,0 -1.36889,2.36952 -1.63003,2.82157 -0.260119,0.45205 -0.690296,0.686907 -1.15826,0.686907 -0.467557,0 -0.943329,0 -1.41191,0 -0.467557,0 -0.663801,-0.508326 -0.495489,-0.814451 0.169031,-0.306741 0.543241,-0.93953 0.543241,-0.93953l-8.23036 0c0,0 -0.636485,1.1025 -1.19369,2.0677 -0.557618,0.964484 0.185565,2.01184 1.12766,2.01184 0.942302,0 14.1577,0 15.3823,0 1.2244,0 2.3118,-0.667601 2.89725,-1.68795 0.585037,-1.01994 1.96265,-3.42108 2.55724,-4.44266 0.594792,-1.02138 -0.157632,-2.03279 -1.10414,-2.03279 -0.94528,0 -9.07746,0 -9.07746,0 0,0 1.48431,-2.57213 1.67665,-2.90516 0.192034,-0.332517 0.630735,-0.609169 1.12078,-0.609169 0.489533,0 0.954317,0 1.41551,0 0.461806,0 0.656305,0.504629 0.509969,0.768958 -0.145823,0.264329 -0.570454,0.987692 -0.570454,0.987692l8.2206 0c0,0 0.778098,-1.34321 1.23549,-2.13466 0.45585,-0.791961 -0.110497,-1.94376 -1.16145,-1.94376 -1.05085,-0.000205384 -14.1731,0 -15.4086,-0.000205384z"/>
   <path id="_182590800" class="fil1" d="M67.8488 56.5563c-0.221918,0.37955 -4.30947,7.46356 -4.53632,7.86087 -0.226231,0.396699 -0.669141,0.662774 -1.14368,0.662774 -0.475156,0 -0.972186,0 -1.42958,0 -0.45852,0 -0.668731,-0.505142 -0.492922,-0.811267 0.176528,-0.304585 4.30639,-7.45719 4.5585,-7.89527 0.253033,-0.438187 0.731989,-0.645625 1.13731,-0.645625 0.405839,0 1.02086,0 1.43327,0 0.412925,0 0.695533,0.448867 0.47341,0.828519zm7.7436 -3.15049c-1.01829,0 -14.2521,0.000205384 -15.3686,0.000205384 -1.11729,-0.000205384 -2.27186,0.601159 -2.86973,1.63229 -0.597976,1.03164 -5.474,9.48074 -6.00317,10.3977 -0.529788,0.916937 0.197682,1.96953 1.14471,1.96953 0.947026,0 14.1549,0 15.3946,0 1.2397,0 2.32823,-0.700873 2.86983,-1.63599 0.540571,-0.935217 5.48119,-9.49583 5.99588,-10.3875 0.514795,-0.893524 -0.146336,-1.976 -1.1635,-1.97621z"/>
   <path id="_182590752" class="fil1" d="M47.8518 56.5529c-0.204973,0.363222 -0.90102,1.56154 -1.1748,2.03515 -0.27388,0.475464 -0.736815,0.651889 -1.13156,0.651889 -0.394132,0 -4.35702,0 -4.35702,0l2.02745 -3.51114c0,0 3.72341,0 4.15636,0 0.432642,0 0.683724,0.462833 0.479572,0.824104zm-3.3683 5.84266c-0.204871,0.361476 -0.900815,1.55999 -1.17449,2.03495 -0.273674,0.472897 -0.736405,0.651478 -1.13095,0.651478 -0.394954,0 -4.35733,-0.00102692 -4.35733,-0.00102692l2.02735 -3.5095c0,0 3.72361,0 4.15626,0 0.432436,0 0.684237,0.462833 0.479161,0.824104zm9.2201 -8.98976c-1.01655,0 -17.3625,0.000205384 -17.3625,0.000205384l-6.74204 11.675 -15.5987 0.00102692 0 2.32556c0,0 30.8176,-0.00205384 31.9817,-0.00205384 1.16391,0 2.26847,-0.604856 2.88277,-1.66279 0.61379,-1.05958 1.57622,-2.73746 1.98997,-3.45641 0.41426,-0.721206 -0.0241326,-1.64081 -0.791448,-1.87947 1.12848,0 2.26693,-0.670887 2.82372,-1.63065 0.557207,-0.959863 1.43995,-2.50682 1.94838,-3.38576 0.508942,-0.876682 -0.114707,-1.98442 -1.13187,-1.98463z"/>
   <polygon id="_182590704" class="fil1" points="102.106,53.4058 94.0254,67.4055 113.613,67.4055 114.955,65.081 103.587,65.081 105.614,61.5715 116.982,61.5715 118.327,59.2421 106.958,59.2421 108.987,55.7267 130.322,55.7278 130.322,53.4058 "/>
  </g>
 </g>
</svg>
