<?xml version="1.0" encoding="UTF-8"?>
<!DOCTYPE svg PUBLIC "-//W3C//DTD SVG 1.1//EN" "http://www.w3.org/Graphics/SVG/1.1/DTD/svg11.dtd">
<!-- Creator: CorelDRAW -->
<svg xmlns="http://www.w3.org/2000/svg" xml:space="preserve" width="240.657mm" height="148.846mm" style="shape-rendering:geometricPrecision; text-rendering:geometricPrecision; image-rendering:optimizeQuality; fill-rule:evenodd; clip-rule:evenodd"
viewBox="0 0 136.801 84.6118"
 xmlns:xlink="http://www.w3.org/1999/xlink">
 <defs>
  <style type="text/css">
   <![CDATA[
    .fil4 {fill:#994F14}
    .fil3 {fill:#AD0078}
    .fil1 {fill:#BA9E66}
    .fil2 {fill:#994F14;fill-rule:nonzero}
    .fil0 {fill:#BA9E66;fill-rule:nonzero}
   ]]>
  </style>
    <clipPath id="id0" style="clip-rule:nonzero">
     <path d="M0 16.9423l51.3372 0 0 -16.9423 -51.3372 0 0 16.9423z"/>
    </clipPath>
    <clipPath id="id1" style="clip-rule:nonzero">
     <path d="M51.2655 16.9423l51.3663 0 0 -16.9423 -51.3663 0 0 16.9423z"/>
    </clipPath>
    <clipPath id="id2" style="clip-rule:nonzero">
     <path d="M102.56 16.9423l34.2412 0 0 -16.9423 -34.2412 0 0 16.9423z"/>
    </clipPath>
    <clipPath id="id3" style="clip-rule:nonzero">
     <path d="M0 33.8872l51.3372 0 0 -17.0166 -51.3372 0 0 17.0166z"/>
    </clipPath>
    <clipPath id="id4" style="clip-rule:nonzero">
     <path d="M51.2655 33.8872l51.3663 0 0 -17.0166 -51.3663 0 0 17.0166z"/>
    </clipPath>
    <clipPath id="id5" style="clip-rule:nonzero">
     <path d="M102.56 33.8872l34.2412 0 0 -17.0166 -34.2412 0 0 17.0166z"/>
    </clipPath>
    <clipPath id="id6" style="clip-rule:nonzero">
     <path d="M0 50.7963l51.3372 0 0 -16.9808 -51.3372 0 0 16.9808z"/>
    </clipPath>
    <clipPath id="id7" style="clip-rule:nonzero">
     <path d="M51.2655 50.7963l51.3663 0 0 -16.9808 -51.3663 0 0 16.9808z"/>
    </clipPath>
    <clipPath id="id8" style="clip-rule:nonzero">
     <path d="M102.56 50.7963l34.2412 0 0 -16.9808 -34.2412 0 0 16.9808z"/>
    </clipPath>
    <clipPath id="id9" style="clip-rule:nonzero">
     <path d="M0 67.7412l51.3372 0 0 -17.0166 -51.3372 0 0 17.0166z"/>
    </clipPath>
    <clipPath id="id10" style="clip-rule:nonzero">
     <path d="M51.2655 67.7412l51.3663 0 0 -17.0166 -51.3663 0 0 17.0166z"/>
    </clipPath>
    <clipPath id="id11" style="clip-rule:nonzero">
     <path d="M102.56 67.7412l34.2412 0 0 -17.0166 -34.2412 0 0 17.0166z"/>
    </clipPath>
    <clipPath id="id12" style="clip-rule:nonzero">
     <path d="M51.3372 84.6119l0 -16.9423 -51.3372 0 0 16.9423 51.3372 0z"/>
    </clipPath>
    <clipPath id="id13" style="clip-rule:nonzero">
     <path d="M102.632 84.6119l0 -16.9423 -51.3663 0 0 16.9423 51.3663 0z"/>
    </clipPath>
    <clipPath id="id14" style="clip-rule:nonzero">
     <path d="M136.801 67.6696l-34.2412 0 0 16.9423 34.2412 0 0 -16.9423z"/>
    </clipPath>
 </defs>
 <g id="Layer_x0020_1">
  <metadata id="CorelCorpID_0Corel-Layer"/>
  <g id="_182596800">
   <g style="clip-path:url(#id0)">
    <image id="_174185664" transform="matrix(256.128 0 0 84.6712 -30819.5 271.196)" x="120.328" y="-3.20339" width="0.200549" height="0.200549" xlink:href="Discovery_Images\Discovery_ImgID1.png"/>
   </g>
   <g style="clip-path:url(#id1)">
    <image id="_173485232" transform="matrix(256.128 0 0 84.6712 -30768.2 271.196)" x="120.328" y="-3.20339" width="0.200549" height="0.200549" xlink:href="Discovery_Images\Discovery_ImgID2.png"/>
   </g>
   <g style="clip-path:url(#id2)">
    <image id="_173481704" transform="matrix(170.931 0 0 84.6712 -20465.2 271.196)" x="120.328" y="-3.20339" width="0.200549" height="0.200549" xlink:href="Discovery_Images\Discovery_ImgID3.png"/>
   </g>
   <g style="clip-path:url(#id3)">
    <image id="_173484536" transform="matrix(256.128 0 0 84.8498 -30819.5 288.678)" x="120.328" y="-3.20339" width="0.200549" height="0.200549" xlink:href="Discovery_Images\Discovery_ImgID4.png"/>
   </g>
   <g style="clip-path:url(#id4)">
    <image id="_173486552" transform="matrix(256.128 0 0 84.8498 -30768.2 288.678)" x="120.328" y="-3.20339" width="0.200549" height="0.200549" xlink:href="Discovery_Images\Discovery_ImgID5.png"/>
   </g>
   <g style="clip-path:url(#id5)">
    <image id="_183175296" transform="matrix(170.931 0 0 84.8498 -20465.2 288.678)" x="120.328" y="-3.20339" width="0.200549" height="0.200549" xlink:href="Discovery_Images\Discovery_ImgID6.png"/>
   </g>
   <g style="clip-path:url(#id6)">
    <image id="_183174960" transform="matrix(256.128 0 0 84.6712 -30819.5 305.05)" x="120.328" y="-3.20339" width="0.200549" height="0.200549" xlink:href="Discovery_Images\Discovery_ImgID7.png"/>
   </g>
   <g style="clip-path:url(#id7)">
    <image id="_183175224" transform="matrix(256.128 0 0 84.6712 -30768.2 305.05)" x="120.328" y="-3.20339" width="0.200549" height="0.200549" xlink:href="Discovery_Images\Discovery_ImgID8.png"/>
   </g>
   <g style="clip-path:url(#id8)">
    <image id="_183175344" transform="matrix(170.931 0 0 84.6712 -20465.2 305.05)" x="120.328" y="-3.20339" width="0.200549" height="0.200549" xlink:href="Discovery_Images\Discovery_ImgID9.png"/>
   </g>
   <g style="clip-path:url(#id9)">
    <image id="_183174840" transform="matrix(256.128 0 0 84.8498 -30819.5 322.532)" x="120.328" y="-3.20339" width="0.200549" height="0.200549" xlink:href="Discovery_Images\Discovery_ImgID10.png"/>
   </g>
   <g style="clip-path:url(#id10)">
    <image id="_183175632" transform="matrix(256.128 0 0 84.8498 -30768.2 322.532)" x="120.328" y="-3.20339" width="0.200549" height="0.200549" xlink:href="Discovery_Images\Discovery_ImgID11.png"/>
   </g>
   <g style="clip-path:url(#id11)">
    <image id="_183175512" transform="matrix(170.931 0 0 84.8498 -20465.2 322.532)" x="120.328" y="-3.20339" width="0.200549" height="0.200549" xlink:href="Discovery_Images\Discovery_ImgID12.png"/>
   </g>
   <g style="clip-path:url(#id12)">
    <image id="_183175944" transform="matrix(256.128 0 0 84.6712 -30819.5 338.904)" x="120.328" y="-3.20339" width="0.200549" height="0.200549" xlink:href="Discovery_Images\Discovery_ImgID13.png"/>
   </g>
   <g style="clip-path:url(#id13)">
    <image id="_183175560" transform="matrix(256.128 0 0 84.6712 -30768.2 338.904)" x="120.328" y="-3.20339" width="0.200549" height="0.200549" xlink:href="Discovery_Images\Discovery_ImgID14.png"/>
   </g>
   <g style="clip-path:url(#id14)">
    <image id="_183175248" transform="matrix(170.931 0 0 84.6712 -20465.2 338.904)" x="120.328" y="-3.20339" width="0.200549" height="0.200549" xlink:href="Discovery_Images\Discovery_ImgID15.png"/>
   </g>
   <path id="_183175920" class="fil0" d="M68.4053 2.94611l0 -0.483581c18.0157,0.00153482 34.3322,4.42152 46.18,11.5991 5.92291,3.58959 10.731,7.87122 14.0659,12.6479 3.33379,4.77521 5.19154,10.0534 5.19098,15.5962 0.00056845,5.54324 -1.85718,10.821 -5.19098,15.5966 -5.0031,7.16481 -13.3161,13.2166 -23.7465,17.4883 -10.4315,4.27071 -22.9873,6.75819 -36.4994,6.75876 -18.0156,-0.00153482 -34.3316,-4.42141 -46.1795,-11.5992 -5.92291,-3.58959 -10.731,-7.87122 -14.0657,-12.6479 -3.33391,-4.77561 -5.19166,-10.0533 -5.19069,-15.5966 -0.000966366,-5.54285 1.85679,-10.821 5.19069,-15.5962 5.00299,-7.16464 13.316,-13.217 23.7465,-17.4882 10.4313,-4.2706 22.9872,-6.75825 36.4987,-6.75876l0 0.483581 0 0.483581c-17.8554,-0.00142113 -34.0143,4.39003 -45.6745,11.4579 -5.83037,3.53286 -10.5344,7.7324 -13.7732,12.3737 -3.23886,4.64236 -5.01658,9.71908 -5.01697,15.0445 0.000397915,5.32593 1.77811,10.4021 5.01697,15.0449 4.85713,6.96227 13.0159,12.9295 23.318,17.1459 10.3006,4.21745 22.738,6.68617 36.1297,6.6856 17.8559,0.00153482 34.0148,-4.39009 45.6752,-11.4579 5.83037,-3.53275 10.5338,-7.73286 13.7732,-12.3737 3.23875,-4.64282 5.01641,-9.71897 5.01697,-15.0449 -0.00056845,-5.32541 -1.77823,-10.4021 -5.01697,-15.0445 -4.8573,-6.96215 -13.016,-12.9293 -23.3182,-17.1458 -10.301,-4.21745 -22.7384,-6.68617 -36.1302,-6.68572l0 -0.483581z"/>
   <path id="_183175824" class="fil0" d="M68.4053 4.78846l0 -0.345334c17.327,0.000966366 33.0177,4.20994 44.4025,11.038 5.69144,3.41445 10.3085,7.48507 13.508,12.0224 3.19907,4.5355 4.97872,9.54337 4.97815,14.8022 0.00056845,5.25919 -1.77908,10.2667 -4.97815,14.8026 -4.80005,6.80503 -12.7852,12.5628 -22.8121,16.6275 -10.0285,4.06374 -22.1032,6.4323 -35.0984,6.4323 -17.3271,-0.000966366 -33.0177,-4.20943 -44.4024,-11.0373 -5.69201,-3.41497 -10.309,-7.48564 -13.508,-12.0225 -3.19964,-4.53589 -4.97872,-9.54343 -4.97815,-14.8026 -0.00056845,-5.25885 1.77851,-10.2667 4.97815,-14.8022 4.79948,-6.80503 12.7847,-12.5633 22.812,-16.6274 10.028,-4.06374 22.1033,-6.43242 35.0984,-6.43298l0 0.345334 0 0.345675c-17.2151,-0.000966366 -32.7957,4.18868 -44.0471,10.939 -5.62647,3.37466 -10.1687,7.38804 -13.2991,11.8285 -3.13085,4.44079 -4.85127,9.30303 -4.85184,14.4041 0.00056845,5.10099 1.72098,9.96323 4.85184,14.4046 4.69455,6.66025 12.5703,12.3593 22.5071,16.3851 9.93589,4.0269 21.9281,6.38222 34.8391,6.38222 17.2146,0.00102321 32.7953,-4.18868 44.0472,-10.9394 5.6259,-3.37466 10.1687,-7.38804 13.2991,-11.8279 3.13029,-4.44136 4.85121,-9.3036 4.85178,-14.4046 -0.00056845,-5.10105 -1.7215,-9.96329 -4.85178,-14.4041 -4.69455,-6.66082 -12.5708,-12.3599 -22.5077,-16.3858 -9.93589,-4.02696 -21.9275,-6.38211 -34.8387,-6.38171l0 -0.345675z"/>
   <path id="_183175848" class="fil1" d="M60.2908 12.7422c5.14033,-0.737735 11.4689,0.272174 14.1823,3.87376 0.655196,0.870127 0.526442,1.62833 0.0875414,2.51693 -0.545201,1.1024 -1.68301,2.25266 -2.76767,1.39054 -0.887635,-0.705561 -0.0745807,-1.6991 0.449758,-1.66528 0.524339,0.0343913 0.69908,0.221411 0.457773,0.697091 -0.241876,0.475566 -0.507967,-0.45874 -0.582605,-0.272174 -0.0751492,0.18702 -0.0915205,0.64576 0.299403,0.705447 0.391094,0.0592325 0.882121,-0.75621 0.399564,-1.3254 -0.483069,-0.569076 -1.19846,0.00846991 -1.45671,0.348346 -0.257792,0.339706 -0.307986,1.5289 0.324926,1.86861 0.632231,0.339877 3.87814,0.690611 3.3621,-3.43179 -0.515414,-4.12252 -8.92734,-5.99312 -15.813,-5.13044 8.35577,-2.34474 13.0912,0.548725 15.9459,2.10651 1.03191,0.562709 2.78859,2.26209 3.7329,4.13678 0.854211,1.69603 1.03685,3.56617 -0.444813,4.30704 -1.22342,0.611482 -1.7228,0 -2.08906,-0.322823 -0.366082,-0.322937 -0.0999904,-1.5289 0.382624,-1.80955 0.483012,-0.280644 0.707948,-0.110393 1.00752,-0.0169398 0.299403,0.0931122 0.648716,0.645817 0.141317,1.05323 -0.508024,0.407977 -1.12542,-0.0631548 -0.977621,-0.411956 0.147627,-0.348744 0.670033,-0.358181 0.843183,0.1254 0.0746375,-0.526726 -0.0915205,-0.628877 -0.474542,-0.781619 -0.383192,-0.153141 -0.591075,0.450326 -0.591075,0.628479 0,0.178493 -0.0412695,0.577603 0.66611,0.891956 0.706982,0.314524 1.59814,-1.56313 0.232837,-1.90243 -1.36462,-0.339877 -1.6393,1.36712 -1.61434,1.52885 0.0253529,0.161213 0.0665656,0.526328 0.216295,0.866205 0.149787,0.339763 0.832382,1.05379 2.01447,0.628877 1.18169,-0.424917 1.62844,-2.16381 1.62844,-2.16381l0 0.0851539c0,0.255121 0.072648,1.79545 0.588517,2.52585 0.993538,1.40646 0.43242,4.97815 -1.32591,4.92102 -0.782586,-0.0253529 -1.14418,-0.4036 -1.22331,-0.832325 -0.0791283,-0.428896 0.478067,-0.608015 0.678048,-0.422529 0.199981,0.185599 0.102946,0.382624 -0.139327,0.393027 0.024955,0.0761724 -0.241307,0.365286 -0.1582,0.365286 0.0836191,0 0.341241,-0.059801 0.341241,-0.059801 0,0 0.141317,-0.229313 0.283202,-0.458626 0.141317,-0.229313 -0.00846991,-0.390525 -0.216466,-0.534912 -0.207882,-0.144273 -1.07665,-0.209417 -0.965627,0.755755 0.111416,0.965741 1.05419,1.32597 1.83433,0.866205 0.905428,-0.533775 1.49605,-1.48559 1.67011,-2.98954 0.200095,0.458626 1.18209,1.64777 1.94785,2.15721 0.765646,0.509502 1.96411,0.747683 2.71299,0.136371 0.749104,-0.611937 0.832325,-1.58024 0.399393,-1.97116 -0.43225,-0.390696 -0.965058,0 -1.06522,0.322766 -0.0999904,0.322994 0.0497963,0.74774 0.0497963,0.74774l0.349768 -0.288943c0,0 -0.466129,-0.628422 -0.0163714,-0.628422 0.44919,0 0.732335,0.373699 0.682027,0.798502 -0.0496826,0.424348 -0.981998,1.63083 -2.61339,0.815442 -1.63088,-0.815442 -2.49652,-2.9224 -2.49652,-2.9224 0,0 0.798957,0.764623 1.91448,0.356816 1.11536,-0.407579 0.73279,-1.73241 0.183041,-1.86878 -0.548725,-0.135803 -0.740407,0.0765703 -0.915433,0.416447 -0.174742,0.339763 0.0999904,0.790032 0.0999904,0.790032l0.324358 -0.229881c0,0 -0.482558,-0.432818 -0.116476,-0.636721 0.366253,-0.203505 1.05141,-0.00449076 0.956759,0.726309 -0.0950449,0.730345 -1.25616,0.581582 -1.25616,0.581582 -1.44836,-0.339763 -1.90852,-2.0105 -1.90852,-2.0105 0,0 0.339308,0.344822 1.32591,0.328849 1.03731,-0.016883 1.16265,-1.597 1.16265,-1.597 0,0 0.0423496,0.405476 0.653832,0.772695 0.611937,0.367674 1.95365,-0.0338228 1.95365,-0.0338228 -0.261203,1.43977 1.07716,1.41243 1.64834,0.948289 -0.426452,0.859156 1.03685,1.90897 1.84127,0.296447 0.465675,-0.934305 -0.568166,-2.30637 -0.568166,-2.30637 0.536276,0.0342207 1.24229,-0.159791 1.61588,-0.632401 0.366253,-0.463685 0.448735,-1.17817 0.165305,-1.61053 1.76464,1.63083 1.98099,2.54882 2.59702,3.60216 0.615859,1.05317 0.341696,2.95566 0.283032,3.35522 -0.0582662,0.398939 -0.815442,1.01088 -1.45626,0.908895 -0.641269,-0.10198 -0.882121,-0.688052 -0.907531,-1.07915 -0.0247844,-0.390525 0.158257,-0.415878 0.657754,-0.432818 0.499554,-0.0169398 0.424348,0.322368 0.44936,0.670715 0.0253529,0.348801 -0.60756,0.0173946 -0.60756,0.0173946 0,0 -0.257679,0.169626 -0.257679,0.220843 0,0.0507626 0,0.211918 0.241307,0.229427 0.241307,0.0169398 0.382624,-0.0513311 0.665656,-0.255234 0.283032,-0.20396 0.407977,-0.475736 0.183041,-0.959715 -0.224765,-0.484149 -0.815442,-0.322937 -1.18999,-0.0681004 -0.374723,0.254666 -0.549748,0.806915 -0.383022,1.13821 0.166556,0.331407 0.407863,0.77315 0.840681,0.824481 0.432932,0.0507626 1.29857,-0.272174 1.88907,-1.01105 0.591018,-0.73927 0.416447,-2.16619 0.416447,-2.16619 0.399507,0.577659 0.549294,2.00458 0.632344,2.99011 0.0831075,0.985068 -0.257622,2.18308 -0.832325,2.95577 -0.574135,0.77315 -1.66414,0.586016 -1.66414,0.586016 -0.940786,-0.475566 -0.516039,-0.959715 -0.516039,-0.959715 0.516039,-0.0254097 0.457205,0.63729 0.457205,0.63729 0,0 0.0418948,-0.0173377 0.191682,-0.144671 0.150185,-0.12739 0.383022,-0.271662 0.158086,-0.679639 -0.224765,-0.407408 -0.632231,-0.144273 -0.998483,0.18702 -0.366082,0.330838 -0.266092,0.65423 -0.266092,0.65423 0.483979,1.25076 2.43979,0.383136 3.02927,-0.382453 1.32597,-1.71848 1.31352,-4.07022 -0.441288,-7.24592 -0.938228,-2.53637 -3.90099,-5.33144 -7.68107,-8.23042 2.78205,1.53681 5.60106,3.82539 7.64526,7.38412 0.614438,1.06914 0.995527,2.17563 1.42738,3.13591 0.376655,0.837839 0.77224,2.90802 1.04032,4.46228 0.181108,1.05124 0.298039,2.90745 1.55625,3.28104 0.963694,0.28559 2.10992,-0.096466 1.87765,-1.37309 -0.0641212,-0.353235 -0.2263,-0.684699 -0.471132,-0.83585 -0.591075,-0.365286 -0.899061,0.17008 -0.990582,0.518427 -0.0915774,0.348176 0.183041,0.619782 0.183041,0.619782l0.307986 -0.424746c0,0 -0.266092,-0.203505 -0.199526,-0.373756 0.0662813,-0.169626 0.832325,-0.110393 0.965172,0.611937 0.0482614,0.261317 -0.0586641,0.489663 -0.214363,0.673728 -0.610516,0.72233 -1.35473,0.633765 -1.81603,-0.20197 -0.320833,-0.580615 -0.526726,-1.60349 -0.782529,-3.39416 -0.466129,-3.26211 -1.59803,-7.47518 -6.05928,-11.3144 -4.46074,-3.83937 -7.0568,-5.11355 -11.2015,-6.6594 -4.14486,-1.54624 -9.63745,-1.41828 -10.2285,-1.39248 -0.59062,0.0253529 -3.45379,0.0676456 -3.45379,0.0676456 0,0 1.22342,-0.135803 2.27215,-0.339308 1.04879,-0.204074 2.03937,-1.06164 2.18916,-1.22342 0.149787,-0.161156 0.283032,-0.585561 0.166158,-1.25667 -0.116532,-0.671169 -0.607446,-0.909521 -1.23189,-0.892013 -0.623931,0.0169398 -0.882178,0.492449 -0.856769,0.738701 0.024955,0.246366 0.116476,0.493017 0.324358,0.790032 0.208053,0.297584 0.632401,-0.0167693 0.632401,-0.0167693l-0.183098 -0.6544c0,0 -0.0413264,0.297584 -0.424348,0.119034 -0.383136,-0.178096 0.466129,-0.432932 0.466129,-0.432932 1.28163,0.119034 1.11496,0.747285 1.11496,0.747285 -0.415878,1.05379 -1.69756,1.55471 -2.18018,1.75879 -0.483012,0.203505 -1.67312,0.390525 -1.67312,0.390525 0,0 0.041838,0 0.283145,-0.186622 0.241307,-0.186963 0.374609,-0.798502 0.299573,-1.22342 -0.0747512,-0.424746 -0.408034,-0.560549 -0.832382,-0.577489 -0.424462,-0.0175083 -0.540824,0.483979 -0.507569,0.798502 0.0334249,0.313898 0.216523,0.747285 0.474145,0.790032 0.258247,0.0422927 0.499554,-0.272174 0.499554,-0.272174l-0.0746375 -0.450156c0,0 -0.399507,0.17855 -0.524907,0.186963 -0.124775,0.00846991 -0.174571,-0.144273 -0.00790146,-0.348176 0.166158,-0.203505 0.615916,-0.135973 0.832382,0.0596305 0.216352,0.19549 -0.224936,0.696579 -0.224936,0.696579 0,0 -0.432818,0.271606 -0.682595,0.407408 -0.249777,0.135803 -1.74776,0.271606 -1.74776,0.271606 -4.61104,0.441857 -7.44096,2.60805 -7.44096,2.60805 0.0916911,-0.178664 -0.0915205,-0.356816 -0.141146,-0.671169 -0.0503647,-0.313898 -0.399564,-0.611482 -0.816011,-0.458171 -0.415878,0.152743 -0.307986,0.662131 -0.307986,0.662131 0,0 0.249777,0.6627 0.458171,0.65423 0.208053,-0.00846991 0.33243,-0.331293 0.33243,-0.331293l-0.183041 -0.314467c0,0 -0.282634,0.305997 -0.34937,0.127901 -0.0666792,-0.178664 0.332828,-0.297584 0.524396,-0.263704 0.191625,0.0338228 0.382567,0.331407 -0.224822,0.951188 -0.60756,0.620407 -2.214,1.73343 -2.214,1.73343 0.0497963,-0.586129 -0.466129,-1.30806 -0.849265,-1.69051 -0.38251,-0.382226 -1.53936,-0.0338796 -1.70592,0.476077 -0.166272,0.509388 -0.00841307,0.951245 -0.00841307,0.951245 0,0 0.649114,0.968185 1.14867,1.01935 0.499497,0.0507626 0.723865,-0.569189 0.723865,-0.569189 0,0 -0.207882,-0.823855 -0.674069,-1.02782 -0.465731,-0.203903 -0.707437,0.484149 -0.707437,0.484149l0.391492 0.339763c0.215954,-0.339763 0.615859,-0.348233 0.615859,-0.348233 0,0 -0.0501942,0.237783 -0.133245,0.433273 -0.0830506,0.195604 -0.649284,0.382169 -0.932316,-0.0342776 -0.283088,-0.416447 0.0247844,-0.925835 0.358181,-1.18903 0.332828,-0.263306 1.31494,-0.475679 1.40646,0.467096 0.0915774,0.943344 -0.707493,1.43579 -0.707493,1.43579 -1.70353,1.17817 -3.19247,2.58111 -4.44682,4.08324 -0.719943,0.862112 -3.47818,4.63077 -3.74882,6.59658 2.90308,-6.45487 8.9693,-11.631 16.1922,-12.6679zm29.2167 6.88769l-0.0661108 -0.6627c0,0 -0.583173,-0.0677025 -0.732392,0.493017 -0.150185,0.560151 0.0826527,1.2573 0.732392,1.20597 0.649284,-0.0508195 0.69891,-0.866205 0.69891,-0.866205 0,0 0.316058,1.15532 -0.965627,1.40998 -1.28163,0.254723 -1.61446,-1.17209 -1.48104,-1.68205 0.132847,-0.509559 0.549123,-1.00201 1.21495,-0.934476 0.665656,0.0677025 1.04868,0.526897 1.09847,0.934476 0.0497963,0.407863 -0.399564,0.781563 -0.682595,0.6627 -0.282634,-0.119034 -0.565665,-0.221014 -0.515869,-0.373756 0.0501942,-0.153141 0.266546,-0.322766 0.69891,-0.186963zm-1.89698 -0.577659c-0.107039,-0.83926 -0.276665,-1.74224 -0.516437,-2.71793 0,0 1.61491,1.58012 2.04773,1.83479 0,0 -1.06562,-0.0850402 -1.53129,0.883145zm-3.6179 -2.58509c0,0 0.386944,-0.996039 -0.606025,-1.42533 0,0 0.656219,-0.58414 0.639279,-1.27123 0,0 1.80108,0.893093 2.60845,2.55922 0.807996,1.66624 0.681174,3.31304 0.614495,3.80606 -0.0667361,0.492506 -0.449303,1.63088 -1.86429,2.12333 -1.41493,0.492619 -2.19746,-0.475566 -2.29688,-0.815442 -0.0999904,-0.339706 -0.349768,-1.22285 0.482558,-1.27418 0.832382,-0.0511605 1.18152,0.322994 1.18152,0.747342 0,0.424917 -0.349142,0.61188 -0.69891,0.476077 -0.349313,-0.136201 -0.399507,-0.493017 -0.0164851,-0.594429 0,0 0.145808,-0.369777 0.145808,-0.429408 0,-0.0592325 -0.499497,0.161724 -0.591075,0.484149 -0.0915205,0.323391 -0.14973,0.688052 0.499554,0.91782 0.648716,0.228858 0.906963,-0.76468 0.906963,-0.960113 0,-0.195092 -0.024955,-0.586129 -0.166727,-0.696579 -0.141317,-0.110393 1.33131,-0.0935101 1.79755,-1.07915 0.466129,-0.985068 0.382624,-2.10639 -0.366253,-2.63284 -0.749104,-0.526897 -1.44818,-0.356703 -2.26954,0.0646897zm-5.06575 -1.90653c0,0 1.06022,0.841761 2.01936,1.04782 0.95926,0.205893 1.46416,0 1.46416,0 0,0 -0.538721,0.892979 0.185201,0.876096 0.723865,-0.0173946 0.538721,-0.549748 0.538721,-0.549748 0,0 -0.740862,0.343799 -0.589085,-0.30901 0,0 1.24525,-0.309408 1.11047,0.721534 -0.134268,1.03032 -1.19454,0.909919 -1.8681,0.686916 -0.673273,-0.223344 -2.59168,-1.37457 -2.86073,-2.47361zm-3.06372 -3.86814c0,0 0.363695,0.519848 0.488526,0.753652 0.1254,0.233804 0.561743,0.679639 0.561743,0.679639 0,0 0.468631,0.658323 1.34228,0.159223 0.874106,-0.498986 0.0517858,-1.27407 -0.187134,-1.41197 -0.239204,-0.138247 -1.38406,0.212487 -1.09256,0.944878 0.291672,0.73279 1.01991,0.318275 1.04038,0.0954428 0.0208621,-0.222833 -0.519962,-0.541222 -0.519962,-0.541222 0,0 0.177129,-0.233861 0.332941,-0.170251 0.156153,0.0637233 0.511378,0.340331 0.407465,0.703003 -0.30702,1.06874 -2.10855,0.0820843 -1.31301,-0.915376l-1.06067 -0.297015zm7.57364 2.16619c0,0 -0.52036,-0.212544 -0.759677,0.307873 0,0 0.0312648,-0.626887 -0.436797,-0.880985 0,0 0.457659,-0.0324585 1.19647,0.573112zm-0.0228517 0.625296c0,0 -0.200947,-0.216295 -0.476646,-0.151151 -0.27513,0.064576 -0.0208621,0.594031 0.254268,0.496996 0.275585,-0.0974893 0.222378,-0.345845 0.222378,-0.345845zm-1.83177 -0.9189c0,0 -0.79458,-0.107892 -0.678218,0.421392 0.11693,0.529853 0.688621,0.184178 0.709938,-0.032288 0.0210327,-0.216352 -0.0317195,-0.389104 -0.0317195,-0.389104zm-2.81411 2.09451c-1.14173,-1.386 -2.81042,-3.03433 -4.39543,-3.89502 -1.82251,-0.989047 -3.80958,-1.23178 -3.80958,-1.23178l4.05231 0.448792 -0.0736143 0.386546c0.720909,-0.311966 1.01991,0.3517 1.91443,1.53521 0.721932,0.95926 1.34586,1.26872 1.86412,0.881724 0.418038,-0.311966 0.590052,-0.819933 0.461298,-1.33245l2.17159 0.84432c-0.505466,0.50251 -0.422416,1.44881 0.0757176,1.51299 0.489095,0.199526 0.911908,-0.487105 0.70738,-1.16066 1.1398,0.505409 0.618986,1.35217 -0.454647,1.54664 -0.944765,0.171217 -1.91403,-0.0889625 -2.90211,-0.697546 -0.0606537,0.42594 0.0796968,0.811065 0.388536,1.16123zm1.6086 0.0214874c0.772524,0.61188 2.03983,0.645305 2.8547,0.122387 0.36216,-0.232837 0.448735,-0.593008 0.35676,-1.03583 -0.344367,0.608924 -0.867171,0.902017 -1.09603,0.113349 -0.430885,0.742794 -1.18408,0.925437 -2.11543,0.800094zm5.93627 7.27958c0.467664,-0.405874 0.820956,-0.927825 1.06675,-1.56062 0.429862,1.18903 0.320833,2.81434 -0.541279,3.1005 -0.481591,0.0198958 -0.812998,-0.121421 -0.98467,-0.432363 -0.198958,-0.360625 -0.134211,-0.777072 0.3409,-0.751264 0.206461,0.0114259 0.424348,0.145808 0.551681,0.386546 0.214931,0.406613 -0.106471,0.499554 -0.459194,0.372165l-0.21351 0.122444c0.220445,0.313898 0.566234,0.219422 0.799071,-0.0238749 0.149787,-0.15621 0.236362,-0.34323 0.226925,-0.57567 -0.0175083,-0.433785 -0.398143,-0.620918 -0.786679,-0.637858zm1.36826 0.934874c0.160246,-0.477669 0.207882,-1.02685 0.145694,-1.64578 0,0 1.05078,1.2 0.988592,2.0388 -0.0627569,0.838862 -0.385125,0.987626 -0.676627,0.955224 -0.291103,-0.0317195 -0.706982,-0.222833 -0.686518,-0.785542 0.0208621,-0.562709 0.915376,-0.328905 0.821923,0.170194l-0.322425 0.350222c0,0 0.228915,-0.053207 0.426338,-0.21243 0.197991,-0.159223 0.364149,-0.445779 0.249777,-0.647749 -0.114372,-0.201516 -0.405476,-0.488072 -0.946754,-0.222946zm-7.31795 -6.04672c0,0 1.62281,2.22935 3.30838,2.78149 1.68517,0.552307 2.95429,-0.467096 3.03791,-1.35922 0.0830506,-0.891444 -0.624329,-1.6352 -1.29016,-1.74128 -0.666053,-0.105902 -1.68557,0.106471 -1.68557,0.998483 0,0.891558 0.332828,1.35882 0.936408,1.42243 0.603467,0.0637233 1.08159,-0.276153 0.936295,-0.827834 -0.145808,-0.552307 -0.416447,-0.870582 -0.957271,-0.828403 -0.54071,0.0422927 0.104083,1.16828 0.540824,0.55225 0,0 -0.18702,0.764225 -0.832325,0.467209 -0.644793,-0.297584 -0.291103,-0.934305 0.0417243,-1.16811 0.332828,-0.233861 1.18619,-0.594599 1.47769,0.276096 0.291103,0.870582 -0.457773,1.84724 -1.04038,1.8901 -0.583003,0.042179 -1.41493,-0.446347 -1.39447,-1.25332 0.0208621,-0.806404 0.187589,-0.870696 0.187589,-0.870696 0,0 -0.769739,0.892126 -1.74776,0.446347 -0.97819,-0.446347 -1.5189,-0.785542 -1.5189,-0.785542zm-3.32839 -1.8046c0,0 0.582548,-0.594429 0.415878,-1.21046 0,0 1.16572,0.998483 1.78948,2.16619 0.6245,1.16817 2.43445,3.24932 4.0161,3.88621 0,0 -0.572145,0.414344 -0.489095,1.03032 0,0 -0.447371,-0.955736 -1.45626,-0.828403 -1.00951,0.12739 -1.21751,1.13628 -1.18607,1.36968 0,0 -0.0836191,-2.59111 -1.51941,-4.41703 -1.43585,-1.82632 -1.57063,-1.99651 -1.57063,-1.99651zm-0.967219 -0.647181c0,0 -0.270185,-0.222378 -0.405419,-0.307589 -0.135405,-0.0850402 0.270071,-0.191511 0.374552,-0.775537 0.10397,-0.583571 0.0308669,-0.785655 0.0308669,-0.785655 0,0 0.81152,0.722501 1.01991,1.26378 0.207882,0.541279 0.145296,0.711473 -0.15621,0.827834 -0.301563,0.11693 -0.551738,-0.127333 -0.665656,-0.286556 -0.114543,-0.159223 -0.020919,-0.509445 0.34323,-0.477669 0.364149,0.0318332 0.114372,0.276096 -0.0104026,0.276096 -0.124945,0 -0.145864,0.286613 -0.145864,0.286613 0,0 0.36432,0.254836 0.468233,0.0532638 0.103913,-0.201914 0.207882,-0.743363 -0.16667,-0.998029 -0.374154,-0.255291 -0.644793,0.191113 -0.676115,0.509502 -0.0308669,0.318332 -0.0413264,0.445665 -0.0104595,0.413946zm-1.63339 -2.85624c0,0 0.249777,1.09353 -0.363695,1.48655l0.519962 0.393084c0,0 -0.156267,-0.66918 0.155699,-0.902586 0.312364,-0.233861 0.832382,-0.0108574 0.832382,-0.0108574l-0.0517858 0.764623c0,0 -0.145808,-0.403486 -0.572145,-0.222946 -0.426906,0.180654 -0.0417243,0.63729 0.374552,0.57368 0.416049,-0.0641781 0.697148,-0.424917 0.593178,-0.732903 -0.104083,-0.307873 -0.645362,-1.09353 -1.48815,-1.34865zm-1.63236 1.01935c-0.352724,-0.234827 -0.88809,-0.43242 -1.51833,-0.610402 0,0 0.436741,-0.286556 0.301392,-0.892126 -0.134836,-0.605002 -0.4472,-0.806972 -0.4472,-0.806972 0,0 1.83081,0.212942 2.73635,1.06226 0.904973,0.849265 0.10397,1.35922 -0.124945,1.39106 -0.228915,0.0317764 -0.696977,-0.148763 -0.770137,-0.530933 0,0 0.405987,-0.541733 0.749275,0.180199l0.0830506 0.196456c0.217489,-0.535765 0.264159,-0.965627 -0.156097,-1.1045 -0.534912,-0.164169 -0.742396,0.110564 -0.832382,0.541392l-0.0209758 0.573567zm-4.62884 -1.44921c0,0 0.34323,-0.233406 0.145808,-0.860293 0,0 1.36263,-0.243695 2.42387,0.255291 1.06124,0.498929 0.644737,1.09353 0.311909,1.16771 -0.332828,0.0745807 -0.697091,-0.0846423 -0.436911,-0.4991l-0.26018 -0.233292c0,0 -0.207882,0.530876 0.166727,0.796001 0,0 -0.936295,-0.339763 -2.35122,-0.626319zm-0.280644 -0.928962c0,0 0.353235,0.254836 0.176674,0.477669 -0.176674,0.222833 -0.49404,0.387513 -0.722898,0.239318 -0.228915,-0.148763 -0.401099,-0.26018 -0.218853,-0.388081 0.182018,-0.12739 0.478465,-0.159223 0.60341,0.0482046 0.124832,0.20703 0.114372,0.233406 0.135291,-0.0108574 0.0208621,-0.244263 0.0263761,-0.366253 0.0263761,-0.366253zm-2.92286 0.674125c0,0 0.0835054,-0.413946 0,-0.743249 0,0 1.2378,-0.233406 1.47718,-0.0318332 0.239147,0.201914 0.301904,0.0109711 0.301904,0.0109711 0,0 -0.0836191,0.721932 0.124832,0.849265 0.207996,0.12739 -1.90391,-0.0851539 -1.90391,-0.0851539zm-0.996039 -0.243695c0.0233633,0.14325 0.137736,0.217319 0.327314,0.233235l0.0159166 -0.190943c0.241876,0.0222833 0.524907,-0.114941 0.232439,-0.2836 -0.14541,-0.0836191 -0.337375,-0.00494552 -0.57567,0.241307zm-0.00653718 0.346186c-0.975063,0.0667361 -1.89499,0.183666 -2.74522,0.36432l1.65072 -0.660312 0.0781051 0.193501 0.791624 -0.421392c-0.0194979,0.210554 -0.00056845,0.473121 0.224765,0.523884zm17.7554 11.4429c0.49063,-0.16161 0.561686,-1.20199 0.0558218,-1.01184 0,0 0.319299,0.665087 -0.013927,0.651103 -0.332828,-0.0143818 -0.721534,-0.254666 -0.48557,-0.608924 0.235793,-0.354145 1.06812,-0.269104 1.05419,0.410535 -0.0134154,0.679583 -0.679639,1.1045 -1.33131,0.920321 -0.745352,-0.210384 -1.32301,-1.92335 0.21982,-2.27465 0.390525,-0.0885646 0.828403,-0.0169398 1.15322,0.434353 0.729379,1.01247 0.317991,2.52244 -0.860122,2.26465 0.680037,-0.191909 1.02088,-0.76269 1.0343,-1.4014 0.00943628,-0.444358 -0.14035,-0.817375 -0.613927,-0.92089 -0.335329,-0.0732164 -0.685097,0.109825 -0.878142,0.496428 -0.160644,0.312932 -0.20197,1.17971 0.665656,1.04032zm-41.46 4.80164c-1.2523,1.57415 1.17561,3.72977 3.43037,6.01244 -0.792534,-1.20949 -1.19153,-2.65273 -1.30152,-4.26923 -0.712894,0.173207 -1.32045,0.0831075 -1.7145,-0.401497 -0.634334,-0.778607 -0.150753,-1.46569 0.571179,-1.35121 0.435376,0.0685551 1.04373,0.373017 1.06914,0.886101l-0.572145 0.466641 -0.260237 -0.212487c0.589654,-0.602899 0.262738,-1.06619 -0.273595,-0.694988 -0.173605,0.119431 -0.267058,0.310374 -0.261146,0.589028 0.0104026,0.493472 0.370175,0.539857 0.734324,0.454704 0.831814,-0.194467 0.896503,-0.877062 0.679639,-1.62833 -0.453737,-0.893149 -1.20301,-0.657186 -2.1015,0.14882zm1.37815 4.85911c-0.422529,-0.414344 -1.47274,-0.62575 -1.72349,0.0522974 -0.174628,0.471189 0,0.942207 0.871662,1.06818 0.578626,0.0830506 0.673728,-0.327882 0.70306,-0.611482 0.0442823,-0.428327 -0.328508,-0.658209 -0.569189,-0.572202 -0.119886,0.042918 -0.249209,0.217091 -0.286613,0.398143 -0.0850402,0.416902 0.332828,0.656219 0.573567,-0.104481l0.143875 0.0834485c-0.0100047,0.102548 -0.0309237,0.191682 -0.0627569,0.267285 -0.120284,0.287977 -0.33874,0.352269 -0.610402,0.260635 -0.30054,-0.101014 -0.503477,-0.354145 -0.320379,-0.709426 0.229313,-0.445324 0.792022,-0.46323 1.28066,-0.132392zm2.75318 2.04784c-0.909521,-2.49152 -2.61834,-4.41936 0.0651444,-10.5414 0.554808,-1.78658 0.235339,-3.23886 -0.985125,-4.34626 -1.09688,-1.00508 -2.59702,-0.773661 -3.02376,0.368129 -0.101525,0.718919 0.459592,1.05175 1.13724,1.31647 0.761269,-0.034846 0.794978,-1.07323 0.138759,-1.16078 0.152743,0.721875 -1.01287,1.23183 -0.624329,0.155812 0.388536,-1.07619 1.38702,-0.962785 2.27465,-0.453282 0.88809,0.509388 0.860122,2.91649 0.388536,3.99251 -0.471189,1.07619 -1.13781,3.56777 -1.13781,3.56777 0,0 0.0557081,-0.311568 -0.859725,-0.707948 -0.915376,-0.396608 -2.41398,-0.0567314 -2.52483,1.50054 -0.110962,1.55761 1.15816,2.77512 1.15816,2.77512 0,0 -1.16521,-1.20352 -1.7269,-1.37321 -0.562141,-0.170194 -1.50548,0.198048 -1.38759,0.707437 0.117897,0.509957 0.506546,0.665769 0.863761,0.55225 0.357271,-0.112951 0.190999,-0.477498 0.0382567,-0.562709 -0.152743,-0.0850402 -0.374609,0.0567314 -0.315888,0.269218 0.0592325,0.21243 0.16667,0.0457034 0.16667,0.0457034 0,0 -0.117897,0.0358124 -0.051729,-0.141317 0.0657129,-0.176959 0.246196,-0.0143818 0.297982,0.0637801 0.051729,0.0775366 -0.0208621,0.208394 -0.270639,0.233406 -0.249777,0.0247844 -0.256257,-0.0139839 -0.450724,-0.155869 -0.194069,-0.141317 -0.194069,-0.849265 0.902017,-0.764623 1.09552,0.0850402 2.02488,1.45819 2.02488,1.45819 0,0 -0.665656,-0.424348 -1.401,-0.35369 -0.734893,0.0706584 -1.49065,0.644225 -1.33142,1.09751 0.159791,0.452714 0.665656,0.764225 1.22046,0.700502 0.555206,-0.0636096 0.358181,-0.853244 0.0143818,-0.856769 -0.344254,-0.00295594 -0.439299,0.222946 -0.291501,0.417982l0.263704 0.105959 -0.173718 -0.134268c-0.0990241,-0.149389 0.0159166,-0.242842 0.159791,-0.227494 0.199526,0.0223969 0.259611,0.132449 0.18361,0.313898 -0.0409284,0.0966366 -0.114543,0.171217 -0.223003,0.22198 -0.222378,0.103003 -0.407011,0.0984556 -0.585504,-0.0816295 -0.324415,-0.327882 -0.107494,-0.94124 0.423894,-1.16123 0.913443,-0.365571 1.83382,-0.0596305 2.78507,0.782699 -0.897924,-0.444813 -1.6165,-0.290649 -1.85525,0.245286 -0.30901,0.694988 0.219877,1.14173 0.813453,1.38503 0.95926,0.392629 1.89698,0.0100047 1.36866,-1.17112 0.493074,0.153141 0.965229,0.7881 1.99503,1.94831 1.02935,1.16066 1.39896,0.877062 1.39896,0.877062 0,0 -0.463117,-3.22886 -0.255121,-4.77919 0.207484,-1.55016 0.270071,-3.22783 1.35223,-4.16214 0.731368,-0.631833 1.09211,-0.438332 1.20392,-0.175196 0.107494,0.253302 -0.217319,1.07562 -0.41332,0.897129 -0.197593,-0.180654 0.177129,-0.711529 0.177129,-0.711529l-0.509957 -0.116873c0,0 -0.572145,0.424917 -0.0523543,0.775082 0.520416,0.350279 0.749275,0.169626 0.957327,-0.233861 0.208451,-0.403429 0.0417243,-0.902415 -0.311966,-1.00849 -0.35369,-0.105902 -1.2797,-0.233804 -1.81051,0.435376 -0.341298,0.430829 -0.553671,0.989615 -0.678105,1.67261 -0.256201,1.40902 -0.23676,3.37324 -0.23676,4.815 0,1.44131 -0.257224,-2.15676 -0.228915,-2.97317 0.0840738,-2.44633 1.65078,-5.87766 4.07772,-6.88007 2.42683,-1.00303 2.76767,1.38008 1.99754,1.93233 -0.769739,0.552136 -1.35234,0.0850402 -1.35234,-0.233804 0,-0.318446 0.0208621,-0.870696 0.770194,-0.658323 0,0 -0.166727,-0.445779 -0.894968,-0.63729 -0.728412,-0.190999 -0.728412,1.2104 -0.0413264,1.67807 0.686518,0.467209 1.28953,0.679185 1.85167,0.0637801 0.286613,-0.314524 0.294059,-0.819421 0.195604,-1.26577 -0.286556,-1.29743 -1.63691,-1.79795 -2.79655,-1.34666 -0.751264,0.292468 -1.9777,1.37065 -2.8368,2.68007 -1.43443,2.18609 -1.7946,6.09061 -0.720966,9.15927 -2.819,-6.87768 2.54785,-13.8738 7.16327,-16.6241 3.02785,-1.80443 6.20594,-3.48011 10.5399,-3.2886 4.50406,0.198958 3.28752,4.40305 1.53936,4.34632 -1.74776,-0.0566745 -1.67824,-0.523316 -1.72002,-1.06164 -0.0417243,-0.537868 0.429862,-0.977166 0.776674,-1.00553 0.34721,-0.0277972 0.888033,-0.0706584 0.818398,0.481591 -0.0691236,0.552307 -0.609947,0.622965 -0.693566,0.410421 -0.0831075,-0.211861 0.430374,-0.424348 0.430374,-0.424348l-0.332828 -0.382056c0,0 -0.65224,0.0561061 -0.402463,0.721932 0.24972,0.665087 0.610516,0.636721 0.915376,0.651274 0.305087,0.0138133 0.610516,-0.453282 0.48557,-0.863817 -0.124775,-0.410933 -0.332828,-0.736314 -0.554637,-0.90594 -0.22198,-0.17008 -1.124,-0.382624 -1.55386,0.310942 -0.43026,0.694021 0,1.8125 0.429862,2.15221 0.430431,0.339877 1.30408,0.694021 2.38618,-0.0283088 1.0821,-0.721932 1.401,-2.73231 0.124832,-3.75177 -1.27617,-1.01935 -3.06764,-1.72496 -6.96329,-0.877631 -4.71245,1.02486 -10.1577,4.76026 -12.8071,9.59556 -2.15915,3.94192 -2.15028,6.33191 -0.888033,10.7081z"/>
   <path id="_183176160" class="fil2" d="M50.2439 50.7367l0 1.43483 0.0682709 0c0.21982,0 0.378474,-0.0702036 0.477498,-0.209986 0.0980009,-0.139725 0.161213,-0.346243 0.188157,-0.618986l0.0989672 0 0 1.84383 -0.0989672 0c-0.0198958,-0.201402 -0.0632117,-0.366082 -0.128356,-0.493472 -0.0662813,-0.128299 -0.141317,-0.214476 -0.22846,-0.258759 -0.0864613,-0.0442823 -0.212373,-0.0661676 -0.37711,-0.0661676l0 0.990013c0,0.194069 0.0074467,0.311966 0.0243865,0.355282l0.0900994 0.106016c0.0442823,0.0273993 0.115395,0.0417811 0.213396,0.0417811l0.206461 0c0.32197,0 0.580615,-0.0761724 0.774684,-0.227892 0.194467,-0.151208 0.334363,-0.382056 0.418436,-0.694021l0.0944765 0 -0.155301 1.11848 -2.97851 0 0 -0.0906679 0.113406 0c0.0999904,0 0.180654,-0.018361 0.241307,-0.0547418 0.0442823,-0.0247844 0.0781051,-0.0661108 0.101525,-0.125798 0.018361,-0.0413264 0.0277972,-0.151322 0.0277972,-0.329303l0 -2.32201c0,-0.160189 -0.0045476,-0.258247 -0.0129607,-0.295481 -0.0169398,-0.0611653 -0.047693,-0.108006 -0.0935101,-0.140862 -0.0646328,-0.0486594 -0.152174,-0.0736143 -0.264159,-0.0736143l-0.113406 0 0 -0.0899857 2.88364 0 0 1.04134 -0.0985693 0c-0.0488299,-0.255234 -0.117897,-0.437309 -0.206916,-0.548327 -0.0881098,-0.110962 -0.212942,-0.192079 -0.37512,-0.244263 -0.094647,-0.0314353 -0.271776,-0.0472382 -0.532411,-0.0472382l-0.358749 0zm5.34639 2.08809l-0.130346 1.23286 -3.05576 0 0 -0.0906679 0.113349 0c0.0999904,0 0.180654,-0.018361 0.241307,-0.0547418 0.0442823,-0.0247844 0.0781619,-0.0661108 0.101582,-0.125798 0.0183041,-0.0413264 0.0279109,-0.151322 0.0279109,-0.329303l0 -2.32201c0,-0.181506 -0.00960681,-0.295026 -0.0279109,-0.339763 -0.0189294,-0.0452487 -0.0562766,-0.0850402 -0.11244,-0.118863 -0.0566745,-0.0343913 -0.132847,-0.0513311 -0.23045,-0.0513311l-0.113349 0 0 -0.0899857 1.83786 0 0 0.0899857 -0.151322 0c-0.099422,0 -0.180085,0.0188726 -0.242274,0.0552534 -0.0442823,0.0244434 -0.0785599,0.0661676 -0.104481,0.1254 -0.018361,0.0417243 -0.0277972,0.151719 -0.0277972,0.329303l0 2.24782c0,0.179574 0.0104026,0.294514 0.0302984,0.344254 0.0198958,0.0497963 0.0596873,0.0860634 0.11892,0.11045 0.0422927,0.0155187 0.144841,0.0234202 0.305997,0.0234202l0.286556 0c0.182075,0 0.333851,-0.0328564 0.455272,-0.0984556 0.121819,-0.065315 0.227323,-0.169228 0.315888,-0.310942 0.0885646,-0.141317 0.172638,-0.350336 0.251767,-0.626887l0.109427 0zm2.08212 1.14219l0 0.0906679 -1.79613 0 0 -0.0906679 0.11352 0c0.0999904,0 0.18054,-0.018361 0.241307,-0.0547418 0.0442823,-0.0247844 0.0781619,-0.0661108 0.101412,-0.125798 0.0184746,-0.0413264 0.0279109,-0.151322 0.0279109,-0.329303l0 -2.32201c0,-0.181506 -0.00943628,-0.295026 -0.0279109,-0.339763 -0.0189294,-0.0452487 -0.0561061,-0.0850402 -0.112383,-0.118863 -0.0567314,-0.0343913 -0.132847,-0.0513311 -0.230336,-0.0513311l-0.11352 0 0 -0.0899857 1.79613 0 0 0.0899857 -0.113917 0c-0.0986262,0 -0.178721,0.0188726 -0.239318,0.0552534 -0.0433159,0.0244434 -0.0781619,0.0661676 -0.103003,0.1254 -0.0184746,0.0417243 -0.0279109,0.151719 -0.0279109,0.329303l0 2.32201c0,0.181506 0.00943628,0.294912 0.0289341,0.340331 0.0198958,0.0452487 0.0571293,0.0844717 0.113349,0.118295 0.0567314,0.0344481 0.132847,0.0512174 0.227949,0.0512174l0.113917 0zm3.41093 -3.43179l0 0.950677 -0.0885646 0c-0.0547418,-0.219308 -0.114941,-0.37711 -0.18054,-0.47261 -0.0662813,-0.096466 -0.157233,-0.17315 -0.272743,-0.229313 -0.0641781,-0.0314353 -0.176561,-0.0472382 -0.338342,-0.0472382l-0.26018 0 0 2.72043c0,0.181506 0.00943628,0.294912 0.0289341,0.340331 0.0188726,0.0452487 0.057243,0.0844717 0.112383,0.118295 0.0562766,0.0344481 0.132847,0.0512174 0.229881,0.0512174l0.112951 0 0 0.0906679 -1.79596 0 0 -0.0906679 0.113349 0c0.0990241,0 0.179119,-0.018361 0.239772,-0.0547418 0.0432591,-0.0247844 0.0781051,-0.0661108 0.10306,-0.125798 0.018361,-0.0413264 0.0277972,-0.151322 0.0277972,-0.329303l0 -2.72043 -0.249777 0c-0.230848,0 -0.397972,0.0506489 -0.502908,0.150753 -0.146774,0.139782 -0.238863,0.339194 -0.277688,0.598408l-0.099422 0 0 -0.950677 3.098 0zm1.60309 0.201516l0 1.43483 0.0684983 0c0.219479,0 0.378702,-0.0702036 0.477271,-0.209986 0.0980009,-0.139725 0.16161,-0.346243 0.188555,-0.618986l0.0984556 0 0 1.84383 -0.0984556 0c-0.0204642,-0.201402 -0.0637801,-0.366082 -0.128925,-0.493472 -0.0657129,-0.128299 -0.141317,-0.214476 -0.227892,-0.258759 -0.086575,-0.0442823 -0.212373,-0.0661676 -0.377508,-0.0661676l0 0.990013c0,0.194069 0.00790146,0.311966 0.024216,0.355282l0.0901562 0.106016c0.0442823,0.0273993 0.115907,0.0417811 0.213339,0.0417811l0.20703 0c0.321402,0 0.580047,-0.0761724 0.774684,-0.227892 0.194069,-0.151208 0.333794,-0.382056 0.417868,-0.694021l0.0950449 0 -0.155699 1.11848 -2.97823 0 0 -0.0906679 0.11352 0c0.0999904,0 0.180085,-0.018361 0.241307,-0.0547418 0.0442823,-0.0247844 0.0781051,-0.0661108 0.101412,-0.125798 0.0179062,-0.0413264 0.0279109,-0.151322 0.0279109,-0.329303l0 -2.32201c0,-0.160189 -0.00449076,-0.258247 -0.0134154,-0.295481 -0.0164851,-0.0611653 -0.0478067,-0.108006 -0.0936238,-0.140862 -0.0641781,-0.0486594 -0.151719,-0.0736143 -0.26359,-0.0736143l-0.11352 0 0 -0.0899857 2.88364 0 0 1.04134 -0.0990241 0c-0.0482614,-0.255234 -0.117897,-0.437309 -0.206461,-0.548327 -0.0879961,-0.110962 -0.213396,-0.192079 -0.37512,-0.244263 -0.0949312,-0.0314353 -0.27206,-0.0472382 -0.53224,-0.0472382l-0.359204 0zm8.42586 -0.201516l0 0.0899857c-0.0641781,0.00551397 -0.118863,0.0239886 -0.163145,0.0557081 -0.0442823,0.0328564 -0.0836759,0.0816295 -0.117897,0.146831 -0.00949312,0.0214306 -0.0627569,0.15621 -0.158257,0.403998l-1.08011 2.90546 -0.0929417 0 -0.853813 -2.29256 -0.945333 2.29256 -0.0904973 0 -1.13838 -2.87511c-0.115395,-0.291501 -0.194922,-0.468631 -0.241307,-0.529455 -0.0457034,-0.0611653 -0.122842,-0.0970345 -0.231303,-0.107437l0 -0.0899857 1.49502 0 0 0.0899857c-0.120853,0.00352439 -0.200492,0.021999 -0.240739,0.056845 -0.0399052,0.0337091 -0.0597441,0.0760018 -0.0597441,0.126367 0,0.0665656 0.041838,0.207428 0.124945,0.422757l0.676058 1.70899 0.547361 -1.34979 -0.13694 -0.363695c-0.0779914,-0.204358 -0.138247,-0.341696 -0.18054,-0.409853 -0.0422927,-0.0686688 -0.0911226,-0.11801 -0.146831,-0.147342 -0.0546849,-0.029332 -0.135234,-0.0442823 -0.241705,-0.0442823l0 -0.0899857 1.65669 0 0 0.0899857c-0.115964,0.00198958 -0.199981,0.0115395 -0.251198,0.0294457l-0.0836191 0.0611084 -0.0303553 0.0980009c0,0.0408716 0.0372335,0.164282 0.113974,0.370175l0.627285 1.66766 0.561174 -1.50901c0.0592325,-0.156665 0.0956134,-0.263534 0.109597,-0.322368 0.0138133,-0.0576977 0.0198389,-0.110848 0.0198389,-0.159109 0,-0.0721932 -0.0233633,-0.127901 -0.0712268,-0.169228 -0.0466698,-0.0407579 -0.137736,-0.0631548 -0.271606,-0.0666792l0 -0.0899857 0.895537 0zm1.46512 1.82728l0 1.09467c0,0.181506 0.00949312,0.294912 0.0289341,0.340331 0.0198958,0.0452487 0.057243,0.0844717 0.113406,0.118295 0.0562766,0.0344481 0.132847,0.0512174 0.22846,0.0512174l0.113349 0 0 0.0906679 -1.79556 0 0 -0.0906679 0.113406 0c0.0995925,0 0.180654,-0.018361 0.241307,-0.0547418 0.0438275,-0.0247844 0.0781051,-0.0661108 0.101525,-0.125798 0.0179062,-0.0413264 0.0279109,-0.151322 0.0279109,-0.329303l0 -2.32201c0,-0.181506 -0.0100047,-0.295026 -0.0279109,-0.339763 -0.0188726,-0.0452487 -0.0566745,-0.0850402 -0.112951,-0.118863 -0.0561629,-0.0343913 -0.132847,-0.0513311 -0.229881,-0.0513311l-0.113406 0 0 -0.0899857 1.79556 0 0 0.0899857 -0.113349 0c-0.0990241,0 -0.178721,0.0188726 -0.239886,0.0552534 -0.0433159,0.0244434 -0.0775935,0.0661676 -0.102946,0.1254 -0.0184746,0.0417243 -0.0279678,0.151719 -0.0279678,0.329303l0 0.999052 1.22342 0 0 -0.999052c0,-0.181506 -0.00943628,-0.295026 -0.0273425,-0.339763 -0.0193273,-0.0452487 -0.0566745,-0.0850402 -0.114941,-0.118863 -0.0571293,-0.0343913 -0.133245,-0.0513311 -0.229881,-0.0513311l-0.111814 0 0 -0.0899857 1.79602 0 0 0.0899857 -0.111985 0c-0.100445,0 -0.181506,0.0188726 -0.240341,0.0552534 -0.0442823,0.0244434 -0.0791283,0.0661676 -0.103913,0.1254 -0.0184746,0.0417243 -0.0279109,0.151719 -0.0279109,0.329303l0 2.32201c0,0.181506 0.00943628,0.294912 0.0279109,0.340331 0.0188726,0.0452487 0.0562766,0.0844717 0.114372,0.118295 0.057243,0.0344481 0.133813,0.0512174 0.229881,0.0512174l0.111985 0 0 0.0906679 -1.79602 0 0 -0.0906679 0.111814 0c0.100559,0 0.181108,-0.018361 0.240341,-0.0547418 0.0442823,-0.0247844 0.0791283,-0.0661108 0.104481,-0.125798 0.0179062,-0.0413264 0.0273425,-0.151322 0.0273425,-0.329303l0 -1.09467 -1.22342 0zm4.52845 1.60451l0 0.0906679 -1.79602 0 0 -0.0906679 0.113406 0c0.0999904,0 0.180654,-0.018361 0.241307,-0.0547418 0.0442823,-0.0247844 0.0781051,-0.0661108 0.101525,-0.125798 0.018361,-0.0413264 0.0277972,-0.151322 0.0277972,-0.329303l0 -2.32201c0,-0.181506 -0.00943628,-0.295026 -0.0277972,-0.339763 -0.0188726,-0.0452487 -0.0562766,-0.0850402 -0.112383,-0.118863 -0.056845,-0.0343913 -0.132847,-0.0513311 -0.23045,-0.0513311l-0.113406 0 0 -0.0899857 1.79602 0 0 0.0899857 -0.113974 0c-0.0989672,0 -0.178493,0.0188726 -0.239318,0.0552534 -0.0431454,0.0244434 -0.0779914,0.0661676 -0.102946,0.1254 -0.0183041,0.0417243 -0.0277972,0.151719 -0.0277972,0.329303l0 2.32201c0,0.181506 0.00949312,0.294912 0.0283657,0.340331 0.0198958,0.0452487 0.0571293,0.0844717 0.113974,0.118295 0.0561061,0.0344481 0.132278,0.0512174 0.227721,0.0512174l0.113974 0zm2.57264 -3.51189l0.0259782 1.17408 -0.104083 0c-0.0496826,-0.293491 -0.17008,-0.529853 -0.362615,-0.708971 -0.193614,-0.179119 -0.402065,-0.268081 -0.625864,-0.268081 -0.173207,0 -0.310545,0.0466698 -0.41099,0.141317 -0.101923,0.0940217 -0.152288,0.202937 -0.152288,0.325324 0,0.0775935 0.0184746,0.146831 0.054287,0.208053 0.0482614,0.0804926 0.127333,0.161156 0.236816,0.240682 0.0796399,0.0567314 0.263704,0.158711 0.551681,0.30395 0.404055,0.201516 0.676683,0.393027 0.816977,0.572714 0.139782,0.179517 0.209417,0.385012 0.209417,0.617394 0,0.293491 -0.112951,0.546224 -0.337773,0.757745 -0.224367,0.211975 -0.509957,0.317878 -0.856143,0.317878 -0.108631,0 -0.211975,-0.0114259 -0.308043,-0.0338228 -0.0970345,-0.0218853 -0.218456,-0.0647465 -0.364661,-0.127333 -0.0811179,-0.0342776 -0.148252,-0.0512174 -0.201004,-0.0512174 -0.0442823,0 -0.0900994,0.0173377 -0.139896,0.0521838 -0.0492278,0.0354145 -0.0889625,0.0885646 -0.119318,0.160189l-0.0885646 0 0 -1.3283 0.0885646 0c0.0746375,0.373131 0.218342,0.658152 0.430885,0.853642 0.213339,0.195604 0.442823,0.294003 0.689019,0.294003 0.189976,0 0.341752,-0.0531501 0.454704,-0.158655 0.112951,-0.104879 0.169228,-0.227323 0.169228,-0.368185 0,-0.0820843 -0.021999,-0.163202 -0.065315,-0.240739 -0.0431454,-0.0781619 -0.108404,-0.151208 -0.196968,-0.222435 -0.0884509,-0.0696352 -0.244263,-0.161156 -0.468119,-0.273595 -0.314467,-0.156665 -0.539857,-0.291047 -0.677081,-0.402065 -0.136371,-0.110393 -0.240852,-0.234827 -0.315035,-0.371028 -0.0736143,-0.136826 -0.109881,-0.287579 -0.109881,-0.451861 0,-0.28053 0.100445,-0.519393 0.302529,-0.716873 0.201402,-0.197537 0.45567,-0.295992 0.76269,-0.295992 0.111985,0 0.220445,0.0134154 0.325324,0.0407579 0.0800947,0.0214306 0.177129,0.0596305 0.291501,0.115509 0.114543,0.0557081 0.194637,0.0830506 0.240341,0.0830506l0.104481 -0.0408716c0.0248413,-0.0273993 0.0492278,-0.0935101 0.0711132,-0.198446l0.0781051 0zm2.61652 1.4313l1.20887 1.5513c0.170649,0.218853 0.318048,0.367674 0.442425,0.446234 0.0889625,0.0557081 0.184462,0.0830506 0.284453,0.0830506l0 0.0906679 -1.79147 0 0 -0.0906679c0.113349,-0.0104595 0.186565,-0.029332 0.219422,-0.0547418l0.0492278 -0.0974324c0,-0.0732164 -0.0771387,-0.211407 -0.233406,-0.414457l-0.789464 -1.01287 -0.128925 0.105902 0 0.963751c0,0.185031 0.0104595,0.299971 0.0299005,0.345277 0.0208621,0.0452487 0.0601989,0.084017 0.118351,0.115907 0.0578114,0.0328564 0.150753,0.0486594 0.278086,0.0486594l0 0.0906679 -1.73832 0 0 -0.0906679 0.11352 0c0.0999904,0 0.18054,-0.018361 0.241307,-0.0547418 0.0442823,-0.0247844 0.0781619,-0.0661108 0.101412,-0.125798 0.0184746,-0.0413264 0.0279109,-0.151322 0.0279109,-0.329303l0 -2.32201c0,-0.181506 -0.00943628,-0.295026 -0.0279109,-0.339763 -0.0193273,-0.0452487 -0.0561629,-0.0850402 -0.112837,-0.118863 -0.0562766,-0.0343913 -0.132847,-0.0513311 -0.229881,-0.0513311l-0.11352 0 0 -0.0899857 1.71251 0 0 0.0899857c-0.115907,0 -0.205495,0.0179062 -0.266149,0.0522974 -0.0442823,0.0248413 -0.0790715,0.0655992 -0.104481,0.122842 -0.019441,0.0438844 -0.0299005,0.155301 -0.0299005,0.334817l0 1.09904 1.28311 -1.05379c0.177698,-0.149616 0.266262,-0.270071 0.266262,-0.359602 0,-0.067134 -0.0363808,-0.119431 -0.109484,-0.158257 -0.0373472,-0.019441 -0.129436,-0.0318332 -0.276665,-0.0373472l0 -0.0899857 1.34228 0 0 0.0899857c-0.120853,0.00903836 -0.215329,0.0308669 -0.2836,0.0672477 -0.0686688,0.0358124 -0.226755,0.157688 -0.474145,0.365116l-1.00889 0.828858zm5.58417 -1.35121l0 0.0899857c-0.113974,0.0159166 -0.200549,0.0497963 -0.261771,0.102094 -0.0846423,0.072648 -0.217887,0.271606 -0.400928,0.596418l-0.749843 1.28066 0 0.852789c0,0.183496 0.00898152,0.297015 0.0279109,0.340729 0.0183041,0.0453055 0.0551397,0.0840738 0.109995,0.117897 0.0557081,0.0344481 0.128356,0.0512174 0.220275,0.0512174l0.193614 0 0 0.0906679 -1.93137 0 0 -0.0906679 0.179517 0c0.101014,0 0.181677,-0.018361 0.240341,-0.0547418 0.0442823,-0.0247844 0.0781051,-0.0661108 0.104481,-0.125798 0.0179062,-0.0413264 0.0273993,-0.151322 0.0273993,-0.329303l0 -0.707493 -0.811918 -1.51452c-0.161213,-0.299005 -0.27513,-0.474542 -0.3409,-0.527863 -0.0661108,-0.0526385 -0.154675,-0.0800947 -0.264671,-0.0820843l0 -0.0899857 1.65283 0 0 0.0899857 -0.0736143 0c-0.0999904,0 -0.170194,0.0149502 -0.209986,0.0452487l-0.0601989 0.094647c0,0.0626432 0.0677025,0.222378 0.203903,0.476532l0.625466 1.1618 0.62234 -1.05732c0.153766,-0.263136 0.230905,-0.437309 0.230905,-0.523316 0,-0.0478067 -0.0218853,-0.0866319 -0.0661676,-0.118465 -0.057243,-0.0437138 -0.163145,-0.0700899 -0.31748,-0.0791283l0 -0.0899857 1.04987 0z"/>
   <path id="_183176280" class="fil1" d="M73.4173 56.0331l-1.71092 2.50948c0,0 4.57267,2.19803 7.90902,4.03492 3.33584,1.83581 9.05934,2.26465 11.2325,0.0612221 2.17267,-2.204 1.7448,-4.95825 0.275585,-5.96833 -1.4691,-1.01031 -4.19306,-0.979554 -5.01936,0.489663 -0.826413,1.4691 0.305883,2.5711 1.1477,2.12743 0.841818,-0.444415 0.581582,-1.20949 0.306452,-1.27066 -0.275585,-0.0612221 -0.612335,0.0919184 -0.596987,0.551113 -0.533775,-0.482614 0.463173,-1.40447 1.0219,-0.558162 0.259213,0.392629 0.146262,1.17266 -0.3135,1.42044 -0.459592,0.247788 -1.35513,0.300483 -1.90897,-0.585163 -0.553671,-0.886044 -0.0179062,-2.49942 1.31056,-2.97413 1.00087,-0.357214 2.32684,-0.48756 3.67111,0.210952 1.43682,0.746773 2.06029,1.86372 2.17466,4.38969 0,0 0.395016,-0.901051 1.56824,-0.416447 0,0 0.676115,0.191511 0.752231,1.32637 0,0 2.33377,-1.96428 2.89449,-4.08108 0.378645,-1.42795 -0.162179,-1.94285 -0.685097,-2.08172 -0.670601,-0.17855 -1.25576,0.399507 -1.28112,0.972676 -0.0382567,0.870127 0.964774,0.995073 1.06715,0.305997 0.0702605,-0.472155 -0.28053,-0.504045 -0.388536,-0.178664 -0.10846,0.325324 -0.778038,-0.395471 0.0188726,-0.542245 0.407579,-0.0746375 0.645817,0.151151 0.730402,0.434751 0.279109,0.936863 -0.916399,1.31556 -1.53379,0.617451 -0.616996,-0.698512 -0.159223,-1.58166 0.401894,-1.79795 0.561288,-0.216921 1.65783,-0.293662 2.19359,1.08352 0.26865,0.691008 -0.050251,1.72491 -0.530876,2.67416 -1.37457,2.71492 -4.68352,5.00651 -7.43977,5.9851 0,0 2.09099,-0.0512174 2.04023,0.816011 -0.0193273,0.330838 -0.160644,0.448166 -0.303894,0.537299 -0.259213,0.16161 -0.618417,0.06162 -0.816977,-0.194467 -0.505011,-0.652809 0.512913,-1.12599 0.191511,-0.461298 -0.287011,0.593008 0.57368,0.420938 0.53531,0.076684 -0.0381999,-0.344822 -0.458626,-0.631378 -1.26219,-0.268195 -0.803448,0.363695 -2.61197,0.253699 -2.61197,0.253699 0,0 2.93298,0.216864 3.57027,1.30096 0.637745,1.08369 0.17855,2.24436 -0.574135,2.25732 -0.752231,0.0123922 -1.08409,-0.688621 -1.04527,-1.2498 0.0377451,-0.561174 0.892524,-0.880018 1.33876,-0.0765703 0.446347,0.803448 -0.14035,0.586527 -0.267683,0.305883 -0.103515,-0.227778 -0.509388,-0.262169 -0.577091,0.019441 -0.084017,0.352724 0.250175,0.769739 0.663154,0.624329 0.135348,-0.0476362 0.271151,-0.147627 0.385125,-0.295992 0.343287,-0.445779 0.242842,-1.20199 -0.215897,-1.50844 -0.459194,-0.305883 -1.63481,-0.902415 -3.1956,-0.458228 0,0 1.30056,0.718976 0.535367,1.97411 -0.765248,1.25474 -2.61692,1.01008 -2.99954,0.887635 0,0 0.489493,0.275187 0.321402,0.887522 0,0 0.872117,-0.689076 1.75975,-0.658209 0.887522,0.0303553 0.96466,0.780596 0.811349,1.02543 -0.153141,0.244832 -0.765078,0.566234 -0.948687,-0.153311 0,0 -0.0612221,-0.221809 0.0537186,-0.359602 0,0 0.0612221,0.642804 0.405476,0.436343 0.344254,-0.206461 0.359715,-0.489663 0.26018,-0.619952 -0.099422,-0.129891 -0.689076,-0.221866 -1.38503,0.198958 -6.37381,3.85182 -10.3519,5.65836 -18.249,5.5931 -7.89714,-0.0646328 -17.7553,-5.82633 -17.7553,-5.82633 0,0 -0.90611,-0.725457 -2.01555,-0.610516 0,0 -0.363183,1.16674 0.688621,1.28169 0,0 0.21044,-0.248811 -0.0765703,-0.497565l0.420824 -0.401497c0,0 0.420994,0.860691 -0.344254,1.07113 -0.765191,0.210384 -1.12837,-0.153197 -1.30056,-0.611937 -0.17207,-0.459194 0.420938,-1.53033 1.62594,-0.93783 0,0 -0.994959,-0.822377 -1.54977,-1.58757 -0.554694,-0.765248 -1.68307,0.134382 -0.84125,0.822889 0,0 0.439696,0.267683 0.267683,-0.497565 0,0 0.459194,-0.153141 0.382453,0.344254 -0.0765703,0.497565 -0.841818,0.650307 -1.12837,0.382624 -0.72233,-0.674125 -0.0283657,-1.91289 1.014,-1.5492 0,0 -0.555206,-0.611937 -0.861259,-1.31989 -0.305883,-0.707948 -1.03333,-1.49207 -1.97059,-1.4155 -0.937261,0.0761724 -1.30056,1.4533 -0.63081,2.18058 0.66918,0.726878 1.52987,0.306054 1.68301,-0.0381999 0.153311,-0.344424 0.0765703,-1.35826 -0.82232,-1.4155 -0.899061,-0.0576977 -0.401497,1.33876 0.114941,1.05175 0,0 -0.248811,-0.937261 0.324756,-0.707493 0.573737,0.229427 -0.172013,1.32 -0.803391,1.10944 -0.631435,-0.210384 -0.803448,-0.918389 -0.21044,-1.5492 0.593008,-0.631378 1.74071,-0.114941 1.81745,0.363126 0.0765703,0.478124 0.210384,1.79801 -1.30101,1.93182 -1.511,0.13387 -1.58768,-1.33876 -1.62588,-1.58757 -0.0383704,-0.248754 0.535765,-2.04671 2.08508,-1.56864l0.439753 0.306054c0,0 -1.87412,-1.91306 -3.78707,-2.00856 -1.91306,-0.0954428 -2.85032,0.459194 -2.88869,1.35826 -0.0381999,0.899061 0.363297,0.995129 0.70755,0.880189 0.344822,-0.114941 0.248811,-0.726878 -0.478067,-0.765248 0,0 0.268081,-0.516437 0.765191,-0.420994 0.497451,0.0956702 0.497451,1.39606 -0.325495,1.435 -0.82232,0.037802 -1.28106,-0.306622 -1.31989,-0.784689 -0.037802,-0.478067 0.402122,-1.87452 1.97076,-2.00839 1.56864,-0.133813 1.89345,-0.210554 2.92633,0.17207 0,0 -0.917365,-1.35826 -1.64424,-1.97019 -0.726878,-0.612449 -1.83632,-2.12333 -3.23295,-2.0662 -1.39646,0.0572998 -0.746148,1.511 -0.401894,1.1095 0.344197,-0.401497 0.650705,-0.344254 0.650705,-0.344254 0,0 -0.114941,0.74575 -0.841818,0.956134 -0.726878,0.210554 -0.861146,-0.70738 -0.726878,-0.975632 0.13387,-0.267513 0.611937,-1.16657 2.27619,-0.956134 1.66414,0.210384 4.18954,3.65377 4.18954,3.65377 0,0 0.0189294,-0.593064 1.16674,-0.841818 1.1477,-0.248754 1.62577,0.784121 1.66414,1.70251 0.0383704,0.918332 0.74575,3.5577 1.54931,4.13184 0,0 -0.305997,-0.898948 0.0382567,-1.47303 0.344822,-0.573737 1.03287,-0.784121 1.47314,-0.478237 0.439867,0.306452 -0.133813,1.32 -0.593008,1.35826 -0.459194,0.0383136 -0.746319,-0.784121 -0.133813,-0.898948 0,0 0.229313,0.765078 0.439696,0.382453 0.210554,-0.382453 -0.401326,-0.746148 -0.63081,-0.669578 -0.229881,0.0765703 -0.670146,1.09057 0.191113,1.81745 0.860691,0.726821 1.52987,2.5059 4.9732,3.38552 3.44322,0.880132 9.48812,-1.26264 13.1224,-6.50398 0,0 -2.1347,3.00153 -5.09843,4.37769 0.545769,-0.176163 0.890478,-0.299005 0.890478,-0.299005 0,0 -2.15028,1.49645 -5.71151,1.99543 -3.56168,0.4991 -5.67768,-0.722785 -6.10794,-1.6173 -0.429862,-0.894571 -0.136826,-2.05933 0.671113,-2.51204 0.635357,-0.355623 1.21597,-0.296561 1.6169,0.0328564 -0.172638,-0.409512 -0.304462,-0.84233 -0.415878,-1.28856 -0.573737,-2.29552 1.98963,-6.00653 8.07274,-6.88666 6.0831,-0.880018 9.56429,1.14782 9.56429,1.14782l2.10537 -2.48168zm13.9683 11.326l0.439867 0.172184c0,0 -0.449303,0.602501 -0.755755,0.39206 -0.306054,-0.210554 -0.104936,-0.803562 0.0478067,-0.918502 0.153141,-0.114372 0.497394,-0.659573 1.39646,-0.324756 0.899061,0.33476 0.277688,1.84576 -0.487503,2.15164 -0.765248,0.306622 -2.17114,0.13387 -3.51996,-0.726878 -1.34876,-0.860691 -4.38059,-3.4144 -5.22241,-4.02679 0,0 3.63484,2.06609 4.95473,2.33377 1.31989,0.268252 2.50596,0.325324 2.50596,0.325324 0,0 -0.459194,0.937432 0.286556,1.48263 0.746319,0.545371 1.13838,-0.239318 1.13838,-0.449701 0,-0.21044 -0.18162,-0.640871 -0.698057,-0.851255 -0.516892,-0.21044 -0.0860634,0.440265 -0.0860634,0.440265zm-11.3717 -5.08507c0,0 3.27763,1.73031 5.30296,3.8662 2.02488,2.13584 4.08716,2.87215 4.08716,2.87215 0,0 -0.908498,0.234827 -0.564244,0.865636 0.344367,0.631378 0.822889,0.631378 1.03287,0.210554 0.210384,-0.420426 -0.0954997,-0.45874 -0.0954997,-0.45874 0,0 -0.554808,0.496939 -0.57368,0.191056 -0.0193273,-0.305997 0.650251,-0.707493 0.937432,-0.172184 0.286556,0.535765 -0.650876,1.37713 -1.53044,1.18607 -0.880018,-0.190943 -2.10446,-1.12837 -2.69707,-1.89345 -0.593008,-0.765817 -2.4677,-3.48216 -3.25222,-4.28515 -0.784121,-0.803618 -2.64727,-2.38215 -2.64727,-2.38215zm-4.83291 -2.99062l0.268138 -0.344652c0,0 3.02251,1.24371 5.37515,2.69741 2.35276,1.45376 5.68115,2.71594 7.9956,3.36676 2.31496,0.650137 2.81195,0.420426 2.81195,0.420426 0,0 0.306054,0.344652 1.18619,0.593008 0,0 -3.27075,0.287011 -4.41857,0.0382567 -1.1477,-0.248811 -5.29898,-2.44871 -6.15967,-2.94582 -0.860691,-0.497394 -4.91596,-3.04127 -7.05879,-3.82539zm20.0231 4.7697c0,0 -1.90556,0.260237 -3.13734,0.444244 -1.23189,0.183212 -3.86376,0.0916911 -3.86376,0.0916911 0,0 2.86175,0.749729 4.43789,0.412922 1.57614,-0.336921 2.5632,-0.948858 2.5632,-0.948858zm-0.765248 -0.40485c0,0 1.4234,-0.122444 3.12199,-0.856769 0,0 -0.887635,-0.199015 -1.16322,-0.979724 -0.671169,0.790601 -1.0418,1.27617 -1.95877,1.83649zm2.91905 -1.6468c0.481989,0.26018 0.650705,-0.574135 0.650705,-0.574135 0.489493,0.428725 -0.160815,1.23922 -0.780596,0.86467 -0.391662,-0.236816 -0.540312,-0.710961 -0.391662,-1.13741 0.380634,-1.08847 1.46132,-0.681572 1.84184,0.152743l0.0995925 0.267683c0,0 0.137736,-1.12485 -0.382624,-1.37719 -0.324926,-0.157631 -0.784121,-0.142283 -1.14276,0.0722501 -0.764793,0.456636 -0.949824,1.71587 0.0870298,2.13879 0.749673,0.305883 1.07858,-0.604433 1.00985,-0.948801 -0.0690667,-0.344254 -0.183439,-0.673159 -0.726821,-0.611937 -0.543268,0.0612221 -0.84972,0.864613 -0.264557,1.15333zm-24.1282 -1.43284c0,0 -1.69051,1.893 -3.31145,3.24125 -1.42596,1.18658 -2.47367,1.52396 -3.97677,2.26772 0,0 1.97031,0.047693 3.42406,-1.46331 1.4537,-1.5114 2.90802,-2.72578 3.86416,-4.04566zm-6.53485 4.81796c-1.47962,0.954599 -2.59503,0.202368 -2.57122,-1.50014 0.0208621,-1.54272 2.29256,-3.32134 4.30704,-3.85728 2.01442,-0.535765 4.80102,-0.514334 5.42194,-0.299971 0,0 -2.74283,2.78615 -4.22154,4.02889 -1.47854,1.24292 -2.76455,1.41453 -3.30048,1.32836 -0.535765,-0.0854381 -1.24275,-0.428271 -1.47854,-1.13582 -0.235907,-0.706982 0.513936,-1.79954 1.60746,-1.49997 1.09256,0.299971 0.964206,1.58615 0.557195,1.84337 -0.407408,0.25711 -0.903438,0.26865 -1.16163,-0.094647 -0.258247,-0.363695 -0.201118,-0.861089 0.124377,-0.908895 0.325324,-0.0478635 0.746148,0.0670772 0.707948,0.468631 -0.0383704,0.402065 -0.497565,0.382567 -0.382624,0 0.114941,-0.382624 -0.640814,0.229881 -0.0288773,0.487503 0.61188,0.258816 0.879563,-0.870127 0.545315,-1.14725 -0.334931,-0.277574 -1.4637,-0.268081 -1.44438,0.802993 0.019441,1.07124 1.72292,1.14037 2.0662,0.0383704 0.326461,-1.04885 -0.171104,-2.12896 -1.54073,-1.83928 -0.503079,0.105902 -1.00064,0.554637 -1.13741,0.921345 -0.122842,0.328849 -0.352724,1.05317 0.119431,1.66312 0.493642,0.637915 1.0916,0.683732 1.81051,0.700672zm8.02044 -5.94395c0,0 -6.41098,9.76183 -11.9509,8.59867 -5.53989,-1.16282 -4.83587,-4.7747 -4.37667,-6.02944 0.459194,-1.25468 1.86719,-3.21345 7.28412,-4.193 5.41745,-0.979213 9.36528,1.01031 9.36528,1.01031l-0.220843 0.311966c-5.24134,-2.2572 -10.4066,-1.18607 -12.8549,0.344367 -2.44826,1.53033 -2.92695,3.94033 -1.22444,5.66216 1.70251,1.72138 4.3802,1.39503 4.3802,1.39503 2.89756,0.493017 4.35876,-1.60547 5.87073,-3.19896 1.303,-1.37417 2.7384,-2.97965 3.23039,-3.53286 0.504898,-0.567257 -0.816977,-0.555262 -1.14935,-0.582605 -0.947152,-0.0781619 -2.41893,-0.107039 -3.89548,0.230848 -2.61396,0.597953 -5.44485,2.50692 -5.35333,5.44485 0,0 -0.0576409,0.478522 0.573737,1.01383 0,0 -3.06031,0 -4.01707,-2.19945 -0.956759,-2.20007 1.4537,-4.85929 5.35583,-5.29904 3.90253,-0.439867 6.99302,0.143306 8.98265,1.02332zm0.20197 0.261771c3.00955,1.16021 5.45781,2.72532 7.24337,4.7697 1.78511,2.0442 3.62148,5.10099 4.25917,5.53438 0.637915,0.433785 1.28817,1.30101 0.637915,1.9383 -0.650307,0.637745 -1.61946,1.13525 -2.12981,0.650705 -0.509957,-0.484604 0.0511605,-1.13531 0.624727,-0.892979 0,0 -0.397404,-0.336807 -0.731766,-0.075206 -0.529853,0.414514 -0.290535,1.19255 0.454647,1.37559 0,0 -6.9696,2.50454 -12.8358,1.96917 -5.86624,-0.535765 -13.6201,-4.10688 -13.6201,-4.10688 0,0 4.43784,0.255121 9.18161,-2.907 4.74434,-3.16269 6.91605,-8.25578 6.91605,-8.25578zm-10.337 8.87164c-0.270582,0.032288 -0.545201,0.0462719 -0.82232,0.0387683 -2.83736,-0.0740123 -4.30641,-0.911851 -5.14584,-2.11344 0.0139839,0.0796968 0.0243865,0.161781 0.029332,0.246821 0.0194979,0.695556 -0.588915,1.04726 -1.06562,1.07761 -2.07365,0.131824 -0.807939,-2.37112 0.0163714,-1.90346 0.595566,0.338285 0.412922,0.757176 0.0686688,1.25628 -0.344254,0.498361 -0.515869,0.0684983 -0.567598,-0.137963 -0.0517858,-0.206461 0.344197,-0.0173377 0.464651,-0.0173377 0.120455,0 0.154732,-0.412525 -0.137792,-0.567655 -0.292638,-0.154675 -0.567598,0.0691236 -0.653775,0.378531 -0.0860634,0.309578 0.292638,0.602614 0.481591,0.688109 0.189521,0.0861771 1.53141,0.137792 1.10103,-1.04925 -0.034846,-0.0970345 -0.0736143,-0.183666 -0.114941,-0.261203 -0.491482,-0.923903 -1.93734,-0.904405 -2.22236,0.244832 -0.0881098,0.355225 -0.0473519,0.801458 0.289967,1.28953 0.808962,1.1697 2.25379,1.2731 4.42152,1.42795 0.984499,0.0700899 2.49845,-0.239318 3.85711,-0.598124zm-13.5637 -4.67562c0,0 -0.239318,-1.39651 -0.229881,-1.81745 0.00989104,-0.420426 -0.478067,-1.18607 -1.10944,-1.01389 -0.631378,0.172638 -0.755755,0.832212 -0.373188,1.35814 0.382624,0.526442 0.736882,-0.238749 0.583628,-0.44919 -0.152743,-0.21044 -0.401553,-0.172184 -0.669635,-0.0289341 -0.267683,0.143875 0.248754,-0.583003 0.898948,-0.267626 0.650819,0.315888 -0.229313,1.02344 -0.573567,1.06164 0.436741,0.226471 1.51492,1.15731 1.47314,1.15731z"/>
   <path id="_183176352" class="fil3" d="M110.758 48.3589l0 -1.27111 0.803448 0c0.729834,0 0.858701,-0.125912 0.858701,-0.835281l0 -1.45273 -3.404 -5.06575c-0.422359,-0.609947 -0.719943,-0.853813 -1.39657,-1.12638l-0.15513 -0.0647465 0 -0.8562 5.26613 0 0 1.27111 -0.906963 0c-0.0940786,0 -0.305485,0.0159166 -0.305485,0.1582 0,0.0612221 0.0323448,0.128356 0.107494,0.243297l2.32485 3.59903 2.27465 -3.59102 0.0299005 -0.0452487c0.0397347,-0.0806631 0.0826527,-0.157802 0.0826527,-0.206063 0,-0.147627 -0.229881,-0.1582 -0.305087,-0.1582l-0.906906 0 0 -1.27111 4.418 0 0 1.27111 -0.508024 0c-0.489606,0 -0.656162,0.0587778 -0.937375,0.500521l-3.25131 5.16471 0 1.62946c0,0.712439 0.214533,0.835281 0.858758,0.835281l1.25821 0 0 1.27111 -6.20594 0z"/>
   <path id="_183176448" class="fil4" d="M65.4053 38.8002c2.39511,0 3.51149,2.74834 3.51149,4.61053 0,1.75873 -0.773661,3.81891 -2.95725,3.81891 -2.39801,0 -3.51103,-2.74823 -3.51103,-4.60797 0,-1.76117 0.77315,-3.82147 2.9568,-3.82147zm-26.9928 5.67569l-0.029332 -0.213965 -1.15867 0 0 3.09601c1.05419,0.123013 2.5478,0.165703 3.67657,-0.318275 -1.05669,-0.289114 -2.25021,-1.01696 -2.48856,-2.56377zm-3.23534 2.78063c0.484604,-0.765191 0.77116,-1.59502 0.77116,-1.59502l-0.150185 -0.0537186 -0.189578 -0.0452487c0,0 -0.321402,0.724888 -0.680151,1.14526 0.0347892,0.16559 0.109995,0.355679 0.248754,0.548725zm-2.38408 -7.11302c0.79458,0 1.32494,-0.671567 1.32494,-1.2955 0,-0.716418 -0.605002,-1.31591 -1.32494,-1.31591 -0.714429,0 -1.32739,0.599488 -1.32739,1.31591 0,0.623931 0.535367,1.2955 1.32739,1.2955zm43.3621 8.21547l-3.14689 -8.317c-0.182075,-0.482046 -0.364149,-0.966082 -0.765646,-1.09455l-0.757176 -0.265125 0 -0.994959 5.30097 0 0 1.27054 -0.598976 0c-0.200947,0 -0.872685,0.034846 -0.872685,0.454817 0,0.0915205 0.0134154,0.171615 0.0537186,0.276096l2.36521 6.32287 2.38465 -6.32583c0.0352439,-0.101525 0.0531501,-0.18162 0.0531501,-0.27314 0,-0.419971 -0.671567,-0.454817 -0.880018,-0.454817l-0.492562 0 0 -1.27054 4.38611 0 0 1.27054 -0.492051 0c-0.487105,0 -0.519393,0.0856086 -0.727844,0.65872l-3.316 8.74237 -2.49396 0zm-24.8251 -0.294457c0.885532,-0.0238749 1.96366,-0.232837 2.60845,-0.99314 -2.61158,-0.173605 -3.17622,-2.42188 -3.17622,-4.3238 0,-1.41351 0.631378,-3.8031 3.01051,-3.8031 1.59757,0 3.00506,0.963239 3.34772,2.28807l0.045874 0.19009 1.102 0 0 -3.90946 -1.18567 0 -0.0507626 0.18702c-0.0127901,0.0458171 -0.0183041,0.0647465 -0.026774,0.0751492l-0.0159166 0.0159735 -0.0104595 0.0243865c-0.0911226,0.189976 -0.307986,0.312932 -0.535367,0.312932 -0.197991,0 -0.355623,-0.0592325 -0.55674,-0.130857l-0.111871 -0.0433159c-0.725457,-0.240852 -1.38912,-0.441288 -2.22935,-0.441288 -2.61749,0 -5.41608,2.17512 -5.41608,5.40801 0,2.4835 1.20102,4.32437 3.20066,5.14334zm6.06071 -3.3613c-0.503079,1.2071 -1.48519,2.07428 -2.55274,2.31246 0.101923,0.371767 0.428271,0.829369 1.40248,0.931349 1.05379,-0.581013 1.84326,-1.57103 2.24225,-2.88261l0.0751492 -0.243297 -1.08114 -0.331805 -0.0860066 0.213908zm44.6014 -2.40045c1.52237,0 2.50749,-0.631378 2.50749,-1.61053 0,-0.861657 -0.725911,-1.73434 -2.35225,-1.73434l-1.14526 0c-0.369209,0 -0.618019,0.139327 -0.618019,0.818967l0 2.52591 1.60803 0zm4.31602 6.21402c-0.925437,0 -2.09258,-0.47369 -2.41353,-2.71651 -0.10397,-0.66918 -0.559185,-2.22878 -2.5985,-2.22878l-0.912022 0 0 2.61692c0,0.688052 0.141885,0.898891 0.602046,0.898891l0.802482 0 0 1.27123 -5.1268 0 0 -1.27123 0.441686 0c0.714031,0 0.841818,-0.124775 0.841818,-0.834315l0 -6.30201c0,-0.465675 -0.247788,-0.848242 -0.625352,-0.97404l-0.883088 -0.294628 0 -0.995527 5.24231 0c1.44227,0 5.27965,0 5.27965,3.10152 0,1.15077 -0.880587,2.05279 -2.3199,2.45673 0.671169,0.320947 1.14475,0.856314 1.32438,1.5334 0.0372335,0.146774 0.0720795,0.310374 0.11244,0.473576 0.187134,0.834883 0.366651,1.47178 0.823855,1.47178 0.460729,0 0.722898,-0.195092 0.880587,-1.26827l0.0299005 -0.216921 0.695556 0 0.0287636 0.671738c0.0299005,0.869559 -0.165135,1.53874 -0.594031,1.991 -0.385012,0.407011 -0.933737,0.615461 -1.63225,0.615461zm-21.9405 -0.157802l0 -1.27111 0.441686 0c0.716987,0 0.842785,-0.125912 0.842785,-0.835281l0 -6.45981c0,-0.465675 -0.24324,-0.845343 -0.623363,-0.971141l-0.883088 -0.297015 0 -0.837271 10.4663 0 0 3.79708 -1.22581 0 -0.0318332 -0.214533c-0.224993,-1.42891 -0.720397,-2.312 -2.49158,-2.312l-1.96172 0c-0.631378,0 -0.808507,0.174173 -0.808507,0.818967l0 2.44331 1.32739 0c0.315888,0 0.599488,-0.106926 0.599488,-0.909919l0 -0.633936 1.36769 0 0 4.58666 -1.36769 0 0 -0.63729c0,-0.800094 -0.2836,-0.912477 -0.599488,-0.912477l-1.32739 0 0 2.53938c0,0.757745 0.257224,0.835281 0.845741,0.835281l2.12998 0c1.52834,0 2.26107,-0.808507 2.29904,-2.54524l0.00494552 -0.251312 1.3279 0 0 4.06766 -10.3324 0zm-55.4871 -5.25316c0,-3.59369 -2.19706,-5.41847 -6.53201,-5.41847l-5.08155 0 0 0.837271 0.861146 0.297015c0.369607,0.125798 0.607958,0.505466 0.607958,0.971141l0 6.45981c0,0.709369 -0.125798,0.835281 -0.818967,0.835281l-0.431227 0 0 0.278143c0.934305,0.122842 2.75664,0.259611 4.20449,-0.291501 -0.522406,-0.034846 -0.58107,-0.187191 -0.58107,-0.821923l0 -6.56924c0,-0.580615 0.243695,-0.834883 0.787077,-0.834883l0.518825 0c2.42996,0 3.93641,1.63492 3.93641,4.27623 0,1.85173 -1.0941,3.83192 -3.48904,3.94982 0.154732,0.379498 0.580047,0.831757 1.63185,1.08898 2.37658,-0.551283 4.38611,-2.26363 4.38611,-5.05767zm3.02137 0.275585l0 2.93281c0,0.524339 0.0720795,0.950222 0.219479,1.28464 0.78395,-0.0775935 1.5517,-0.273197 2.13277,-0.698512 -0.072648,-0.096466 -0.117897,-0.289114 -0.117897,-0.677081l0 -4.79261 -3.7408 0 0 0.848185 1.07011 0.289114c0.334419,0.0879961 0.436343,0.281042 0.436343,0.813453zm9.90104 -1.85724c-1.44483,-0.37171 -2.69207,-0.690042 -2.69207,-1.55721 0,-0.824481 1.10495,-1.11894 2.14334,-1.11894 1.7747,0 3.01097,0.907361 3.30753,2.43291l0.0407579 0.202937 1.11598 0 0 -3.81004 -1.23388 0 -0.029332 0.22198c-0.0243865,0.203505 -0.107039,0.221809 -0.201118,0.221809 -0.138759,0 -0.264557,-0.0159166 -0.468062,-0.0885646l-0.109427 -0.0288773c-0.589085,-0.182075 -1.58166,-0.486992 -2.54234,-0.486992 -2.51045,0 -3.94738,1.04629 -3.94738,2.86317 0,2.44587 2.21559,3.00506 4.16686,3.50552 1.61588,0.409455 3.0129,0.765248 3.0129,2.02039 0,0.867171 -0.990127,1.22541 -2.0205,1.28464 0.25171,0.473576 0.808507,0.91242 1.94535,0.976598 1.19903,-0.4418 2.10105,-1.31096 2.10105,-2.77768 0,-2.68405 -2.5449,-3.33982 -4.58967,-3.86165zm21.2157 6.42247l5.32792 0c1.77413,-0.818967 3.1682,-2.48862 3.1682,-4.913 0,-3.58607 -3.00545,-5.52045 -5.83395,-5.52045 -2.82787,0 -5.83333,1.93438 -5.83333,5.52045 0,2.42438 1.39407,4.09404 3.17116,4.913z"/>
  </g>
 </g>
</svg>
