<?xml version="1.0" encoding="UTF-8"?>
<!DOCTYPE svg PUBLIC "-//W3C//DTD SVG 1.1//EN" "http://www.w3.org/Graphics/SVG/1.1/DTD/svg11.dtd">
<!-- Creator: CorelDRAW -->
<svg xmlns="http://www.w3.org/2000/svg" xml:space="preserve" width="208.564mm" height="207.454mm" style="shape-rendering:geometricPrecision; text-rendering:geometricPrecision; image-rendering:optimizeQuality; fill-rule:evenodd; clip-rule:evenodd"
viewBox="0 0 196.786 195.738"
 xmlns:xlink="http://www.w3.org/1999/xlink">
 <defs>
  <style type="text/css">
   <![CDATA[
    .str0 {stroke:#C0A062;stroke-width:0.0718967}
    .fil0 {fill:#C0A062}
    .fil1 {fill:#1F1A17;fill-rule:nonzero}
   ]]>
  </style>
 </defs>
 <g id="Layer_x0020_1">
  <metadata id="CorelCorpID_0Corel-Layer"/>
  <g id="_172384568">
   <path id="_172383848" class="fil0 str0" d="M118.832 22.3555c-1.5387,0 -2.82199,1.0258 -2.82199,2.30843 0,1.28329 1.28329,2.30909 2.56592,2.56592l-5.64408 27.7068 -5.64408 -36.9426c1.28263,-0.256828 2.56516,-1.28263 2.56516,-2.56526 0,-1.28338 -1.28254,-2.30919 -2.82199,-2.30919 -1.53946,0 -2.82209,1.0258 -2.82209,2.30919 0,1.5387 1.28263,2.56526 2.82209,2.56526 0,0 0,0 0.256828,0l-6.67064 36.4297 -7.95251 -49.5135c1.28263,-0.256828 2.56516,-1.28329 2.56516,-2.56592 0,-1.28263 -1.28254,-2.30843 -2.82199,-2.30843 -1.53946,0 -2.82209,1.0258 -2.82209,2.30843 0,1.53946 1.28263,2.56592 2.82209,2.56592 0,0 0,0 0,0l-7.95251 49.5135 -6.67064 -36.6866c1.53946,0 2.56526,-1.0258 2.56526,-2.30843 0,-1.53946 -1.28263,-2.56601 -2.82209,-2.56601 -1.5387,0 -2.82209,1.02656 -2.82209,2.56601 0,1.28263 1.28338,2.30843 2.82209,2.30843 0.256828,0 0.256828,0 0.256828,0l-5.64408 37.1995 -5.64417 -27.9637c1.28263,-0.256828 2.05236,-1.28263 2.05236,-2.30909 0,-1.5387 -1.0258,-2.56526 -2.56516,-2.56526 -1.53946,0 -2.82209,1.02656 -2.82209,2.56526 0,1.28329 1.28263,2.30909 2.82209,2.30909 0,0 0.256733,0 0.512807,0l5.38735 31.2987 6.15774 -30.7858 6.41381 30.7858 8.20934 -37.1988 7.95251 37.1988 6.41381 -30.7858 5.64408 30.7858 5.90091 -31.0418c0,0 0.256073,0 0.256073,0 1.53946,0 2.82209,-1.02656 2.82209,-2.56592 0,-1.28263 -1.28263,-2.30843 -2.82209,-2.30843z"/>
   <path id="_172383968" class="fil0" d="M3.12902 63.4029l30.7858 0 37.1996 51.5659 0 -51.053 0.256073 -0.512901 17.4451 0 0.256828 0.512901 0 67.9852 -0.512901 0.512901 -30.2728 -0.256073c-0.769729,-0.512901 -13.0838,-17.702 -36.9427,-51.3097l-0.256828 0 0 -0.256828 -0.256828 0 0 51.3097 -0.256073 0.256828 -17.4452 0 -0.256828 -0.256828 0 -68.2413 0.256828 -0.256828z"/>
   <path id="_172384088" class="fil0" d="M113.187 63.4029c0.256828,0 4.61828,6.66988 12.8276,22.3196l15.3929 28.7334 0.256828 0 28.2197 -50.7962 24.6287 0 -38.7382 68.4981 -0.256828 0.256073 -27.7068 0c-0.513656,-0.256073 -2.56601,-3.84779 -6.15774,-10.7745l-32.8381 -58.2365 24.3719 0z"/>
   <path id="_172384208" class="fil0" d="M49.5637 153.965l0 -4.61828 8.21009 0c2.05226,0 2.82199,0.769729 2.82199,2.30919 0,1.53936 -0.769729,2.30909 -2.56592,2.30909l-8.46617 0zm12.5708 0.769729c0.513656,-0.769729 1.02656,-1.79629 1.02656,-3.07882 0,-1.28263 -0.512901,-2.30919 -1.28263,-3.07891 -0.769729,-0.769729 -2.05236,-1.28263 -3.59172,-1.28263l-11.0314 0 0 14.1102 2.30843 0 0 -5.38725 7.18354 0 3.59172 5.38725 2.82209 0 -3.84855 -5.38725c1.28329,-0.256828 2.05302,-0.769729 2.82199,-1.28263z"/>
   <path id="_172384328" class="fil0" d="M104.208 158.325c-1.28263,1.02656 -2.82199,1.53946 -4.87435,1.53946 -2.05236,0 -3.59182,-0.512901 -4.87435,-1.53946 -1.0258,-1.0258 -1.79553,-2.30843 -1.79553,-3.84789 0,-1.53946 0.769729,-2.82199 2.05226,-3.84855 1.0258,-0.769729 2.82209,-1.28263 4.61762,-1.28263 1.79629,0 3.33565,0.256828 4.61828,1.28263 1.28263,1.02656 2.05236,2.30909 2.05236,3.84855 0,1.79553 -0.769729,3.07891 -1.79629,3.84789zm-4.87435 -11.2875c-2.30843,0 -4.36154,0.768974 -6.15698,2.05236 -1.79553,1.28263 -2.82209,3.07816 -2.82209,5.38725 0,2.30919 0.769729,4.10472 2.82209,5.64408 1.53936,1.28263 3.59172,1.79553 6.15698,1.79553 2.56592,0 4.61828,-0.512901 6.15698,-1.79553 1.79629,-1.28254 2.82209,-3.33489 2.82209,-5.64408 0,-2.05226 -0.768974,-4.10462 -2.82209,-5.38725 -1.5387,-1.28338 -3.59106,-2.05236 -6.15698,-2.05236z"/>
   <path id="_172384448" class="fil0" d="M149.104 156.273c0,1.28338 -0.512901,2.05236 -1.53946,2.56601 -0.769729,0.512901 -2.30843,1.0258 -4.10462,1.0258 -1.79553,0 -3.33499,-0.512901 -4.10472,-1.0258 -1.0258,-0.513656 -1.53946,-1.28263 -1.53946,-2.56601l0 -8.97907 -2.30834 0 0 9.49272c0,1.5387 0.768974,2.82209 2.05226,3.59097 1.5387,1.02656 3.59182,1.53946 5.90025,1.53946 2.30909,0 4.36145,-0.512901 5.90091,-1.53946 1.28263,-0.76888 2.05226,-2.05226 2.05226,-3.33489l0 -9.49197 -2.30909 0 0 8.72224z"/>
   <path id="_172384592" class="fil0" d="M190.409 153.965l-8.46617 0 0 -4.36145 8.21009 0c2.05236,0 3.07816,0.769729 3.07816,2.30919 0,1.28254 -1.0258,2.05226 -2.82209,2.05226zm3.84855 -5.38801c-0.769634,-0.769729 -2.05226,-1.0258 -3.33565,-1.0258l-11.2875 0 0 13.8534 2.30843 0 0 -5.38725 8.46617 0c1.53946,0 2.82209,-0.256828 3.84855,-1.02656 0.769729,-0.769729 1.28263,-1.79553 1.28263,-3.07807 0,-1.53946 -0.512901,-2.56601 -1.28263,-3.33574z"/>
   <path id="_172384664" class="fil0" d="M10.5686 156.017l6.67064 0c-1.02646,2.30843 -3.07882,3.59182 -6.15774,3.59182 -2.05226,0 -3.59172,-0.513656 -4.61752,-1.53946 -1.28263,-1.02656 -1.79553,-2.30919 -1.79553,-3.84864 0,-1.53936 0.512901,-3.07807 2.05236,-4.10462 1.0258,-0.769729 2.56526,-1.28263 4.3607,-1.28263 2.30919,0 4.10472,0.769729 5.64417,2.56526l2.30909 -1.28263c-2.05236,-2.30919 -4.61752,-3.33499 -7.69644,-3.33499 -2.56516,0 -4.61752,0.512901 -6.41381,1.79553 -1.79553,1.53946 -2.82199,3.33574 -2.82199,5.64408 0,2.30919 1.02646,4.10472 2.82199,5.64417 1.53946,1.28254 3.59182,1.79619 6.15698,1.79619 2.82209,0 4.87445,-0.769729 6.67064,-2.05226 1.53946,-1.53946 2.30919,-3.33574 2.30919,-5.64417l0 -0.256828 -9.49272 0 0 2.30919z"/>
   <path id="_172384736" class="fil1" d="M5.08315 180.763l2.30532 0 0 -4.05726 -7.38847 0 0 4.05726 2.30296 0 0 14.3689 2.78019 0 0 -14.3689zm6.35106 3.06372l0 -7.12098 -2.78246 0 0 18.4261 2.78246 0 0 -7.5567 4.02735 0 0 7.5567 2.78246 0 0 -18.4261 -2.78246 0 0 7.12098 -4.02735 0zm15.0973 -3.06372l0 -4.05726 -6.09518 0 0 18.4261 6.09518 0 0 -4.05726 -3.31263 0 0 -3.17676 3.13977 0 0 -4.05952 -3.13977 0 0 -3.07533 3.31263 0zm12.8935 0.680094l1.11119 -3.71155c-1.07892,-0.993533 -2.22229,-1.49841 -3.43028,-1.51455 -1.10883,0.0161343 -2.01018,0.578665 -2.69952,1.68287 -0.703116,1.09043 -1.06043,2.59111 -1.06958,4.4976 0,0.866818 0.0736894,1.59296 0.22588,2.17624 0.131433,0.585458 0.327309,1.05807 0.583194,1.41538 0.25362,0.359672 0.56253,0.661601 0.922203,0.910597 0.348067,0.260508 0.735384,0.495634 1.16412,0.703116 0.359578,0.136056 0.751519,0.345802 1.17573,0.643202 0.195876,0.142944 0.359578,0.33882 0.486388,0.583194 0.119828,0.23975 0.182101,0.530262 0.182101,0.871441 -0.011511,0.63622 -0.15672,1.10421 -0.437985,1.39925 -0.278906,0.30891 -0.599422,0.463366 -0.949754,0.463366 -0.481859,0 -0.938242,-0.195876 -1.36472,-0.583194 -0.419586,-0.357313 -0.81615,-0.80228 -1.18724,-1.32782l0 0 -1.23102 3.86591c1.15035,1.36934 2.42977,2.07019 3.83826,2.10246 1.15959,0.0161343 2.19238,-0.56253 3.09835,-1.73128 0.437985,-0.652448 0.735384,-1.4085 0.896727,-2.27767 0.154455,-0.87597 0.232862,-1.7727 0.232862,-2.68329 -0.00924656,-1.4685 -0.258243,-2.59111 -0.749254,-3.38188 -0.484123,-0.76303 -1.11572,-1.31631 -1.89035,-1.65749l-0.765294 -0.371183c-0.274377,-0.126716 -0.555643,-0.322686 -0.84606,-0.583194 -0.315893,-0.265131 -0.4795,-0.652354 -0.488747,-1.16875 0.00924656,-0.525638 0.154455,-0.917579 0.431097,-1.16884 0.258149,-0.248902 0.532526,-0.371089 0.825302,-0.371089 0.733026,0.0161343 1.37859,0.419492 1.9364,1.21715zm2.97154 13.6888l2.78019 0 0 -6.11131 1.63438 0c2.58196,0.0484029 3.88676,-2.03556 3.9213,-6.2519 -0.0137755,-2.11624 -0.3826,-3.66315 -1.10647,-4.64055 -0.716986,-0.949754 -1.67599,-1.42237 -2.87936,-1.42237l-4.35003 0 0 18.4261zm2.78019 -14.5602l0.507145 0c0.292776,0 0.571683,0.0116054 0.841437,0.0368919 0.262772,0.0277397 0.491011,0.117563 0.684623,0.260508 0.205217,0.142944 0.355049,0.371183 0.454214,0.680094 0.115205,0.32278 0.172854,0.779164 0.172854,1.36934 0,0.553284 -0.0576495,0.977399 -0.172854,1.27018 -0.117658,0.302023 -0.279001,0.530262 -0.484123,0.682358 -0.191347,0.14068 -0.419586,0.223616 -0.684717,0.235221 -0.267395,0.0322686 -0.537149,0.0484029 -0.811433,0.0484029l-0.507145 0 0 -4.58299zm9.88731 -3.86591l-2.78246 0 0 18.4261 2.78246 0 0 -18.4261zm7.5199 10.8694c0.765294,-0.281265 1.34622,-0.887575 1.74505,-1.83044 0.398829,-0.961265 0.594799,-2.08859 0.594799,-3.37716 -0.00924656,-1.97103 -0.368824,-3.40953 -1.07656,-4.31324 -0.705475,-0.901351 -1.61371,-1.34858 -2.72717,-1.34858l-4.25096 0 0 18.4261 2.78019 0 0 -7.08871 0.0345331 0 2.69952 7.08871 3.56625 0 -3.36565 -7.5567zm-2.93465 -7.21552l0.290417 0c0.136056,0 0.265131,0 0.389676,0 0.119828,0 0.242014,0.0161343 0.366466,0.0484029 0.235127,0.0621784 0.454214,0.179836 0.659336,0.348067 0.205217,0.142944 0.36656,0.368824 0.486388,0.680094 0.124545,0.30891 0.186724,0.721515 0.186724,1.22866 0,0.486482 -0.0621784,0.876064 -0.186724,1.17346 -0.119828,0.311175 -0.281171,0.546302 -0.486388,0.70538 -0.205123,0.168325 -0.424209,0.274283 -0.659336,0.32278 -0.242014,0.0645372 -0.495634,0.0921825 -0.756142,0.0921825l-0.290417 0 0 -4.59903zm10.1571 -3.6539l-2.78246 0 0 18.4261 2.78246 0 0 -18.4261zm6.23124 4.05726l2.30522 0 0 -4.05726 -7.38838 0 0 4.05726 2.30296 0 0 14.3689 2.78019 0 0 -14.3689zm13.9931 -4.66357c-1.59296,0.0322686 -2.96465,0.912862 -4.11038,2.63499 -1.18488,1.72665 -1.79119,4.00423 -1.81657,6.83972 0.0184931,3.03146 0.578665,5.46821 1.68061,7.31242 1.0742,1.8696 2.49204,2.81935 4.24634,2.85162 1.7543,-0.0322686 3.1744,-0.982022 4.26936,-2.85162 1.08581,-1.84422 1.63909,-4.28097 1.65749,-7.31242 -0.0253809,-2.83549 -0.629332,-5.11306 -1.80506,-6.83972 -1.14799,-1.72212 -2.52195,-2.60272 -4.12179,-2.63499zm0 4.6313c0.864459,0.0161343 1.58371,0.504881 2.1485,1.47077 0.578665,0.940601 0.871441,2.07481 0.882952,3.39339 -0.011511,1.61834 -0.304287,2.93239 -0.882952,3.94668 -0.564795,1.02816 -1.28404,1.54918 -2.1485,1.56531 -0.843796,-0.0161343 -1.55606,-0.537149 -2.13473,-1.56531 -0.587817,-1.01429 -0.887481,-2.32834 -0.896727,-3.94668 0.00924656,-1.31858 0.30891,-2.45279 0.896727,-3.39339 0.578665,-0.965888 1.29093,-1.45463 2.13473,-1.47077zm13.7787 0.0322686l0 -4.05726 -6.15509 0 0 18.4261 2.78246 0 0 -7.23402 3.0591 0 0 -4.05952 -3.0591 0 0 -3.07533 3.37263 0zm6.83283 14.3689l2.78482 0 0 -11.2935 0.0322686 0 5.10391 11.2935 2.78246 0 0 -18.4261 -2.78246 0 0 11.2683 -0.0276453 0 -5.10853 -11.2683 -2.78482 0 0 18.4261zm19.0278 -14.3689l0 -4.05726 -6.09744 0 0 18.4261 6.09744 0 0 -4.05726 -3.31499 0 0 -3.17676 3.14213 0 0 -4.05952 -3.14213 0 0 -3.07533 3.31499 0zm3.75306 -4.05726l-2.90474 0 3.20205 18.4261 2.83322 0 2.10472 -10.6827 0.0253809 0 1.87875 10.6827 2.84473 0 3.42566 -18.4261 -2.90465 0 -2.01481 11.9045 -0.0253809 0 -2.11161 -11.9045 -2.21766 0 -2.24767 11.9045 -0.0300041 0 -1.85799 -11.9045zm22.4257 0l-2.78246 0 0 18.4261 2.78246 0 0 -18.4261zm1.97565 18.4261l2.78246 0 0 -11.2935 0.0346274 0 5.10391 11.2935 2.78246 0 0 -18.4261 -2.78246 0 0 11.2683 -0.0276453 0 -5.11089 -11.2683 -2.78246 0 0 18.4261zm12.9304 0l3.94894 0c1.53531,-0.0322686 2.81935,-0.928996 3.84987,-2.68565 1.04656,-1.69438 1.57909,-3.86827 1.59748,-6.52854 -0.0183988,-2.65801 -0.550925,-4.84803 -1.59748,-6.57704 -1.03052,-1.72203 -2.31456,-2.60262 -3.84987,-2.63489l-3.94894 0 0 18.4261zm2.78246 -14.3689l0.659336 0c0.908238,0.0161343 1.64362,0.451855 2.20379,1.31178 0.56253,0.885216 0.84606,2.16464 0.855307,3.84289 -0.0183988,1.77506 -0.325045,3.07986 -0.910597,3.91431 -0.590176,0.843796 -1.31405,1.25876 -2.17615,1.24262l-0.631691 0 0 -10.3116zm11.0377 -4.05726l-2.78255 0 0 18.4261 2.78255 0 0 -18.4261zm8.54108 15.2287l0.703116 3.19742 2.96682 0 -4.0365 -18.4261 -3.03608 0 -4.12189 18.4261 2.95541 0 0.735384 -3.19742 3.83374 0zm-0.74699 -3.6539l-2.31673 0 1.15261 -5.88307 0.0253809 0 1.13874 5.88307z"/>
  </g>
 </g>
</svg>
